G04*
G04 #@! TF.GenerationSoftware,Altium Limited,Altium Designer,21.9.2 (33)*
G04*
G04 Layer_Physical_Order=2*
G04 Layer_Color=16711680*
%FSLAX25Y25*%
%MOIN*%
G70*
G04*
G04 #@! TF.SameCoordinates,39B9B14E-A64B-4F8B-B52F-0CE4EF318544*
G04*
G04*
G04 #@! TF.FilePolarity,Positive*
G04*
G01*
G75*
%ADD17C,0.02000*%
%ADD90R,0.09508X0.20000*%
%ADD92C,0.05000*%
%ADD94O,0.07500X0.06000*%
%ADD95C,0.01400*%
%ADD96C,0.20866*%
%ADD97R,0.05906X0.05906*%
%ADD98C,0.05906*%
%ADD99R,0.05906X0.05906*%
%ADD100C,0.06693*%
%ADD101R,0.06693X0.06693*%
%ADD102C,0.03150*%
%ADD103C,0.05000*%
D17*
X309449Y439764D02*
X309646Y439961D01*
X422441D01*
X396189Y363672D02*
X396440Y363923D01*
X429868D01*
X430118Y364173D01*
D90*
X356446Y125100D02*
D03*
X390954D02*
D03*
D92*
X369291Y331693D02*
X408488D01*
X324248D02*
X369291D01*
Y339764D01*
X359375Y141732D02*
X388025D01*
X356446Y125100D02*
Y138803D01*
X359375Y141732D01*
X390954Y125100D02*
Y138803D01*
X388025Y141732D02*
X390954Y138803D01*
X411417Y334622D02*
Y341378D01*
X408488Y331693D02*
X411417Y334622D01*
Y341378D02*
X411575Y341535D01*
X321319Y334622D02*
X324248Y331693D01*
X321319Y334622D02*
Y341083D01*
X320866Y341535D02*
X321319Y341083D01*
D94*
X335850Y560185D02*
D03*
Y550185D02*
D03*
Y540185D02*
D03*
Y530185D02*
D03*
Y520185D02*
D03*
Y510185D02*
D03*
Y500185D02*
D03*
Y490185D02*
D03*
Y480185D02*
D03*
Y470185D02*
D03*
Y460185D02*
D03*
Y450185D02*
D03*
Y440185D02*
D03*
Y430185D02*
D03*
Y420185D02*
D03*
Y410185D02*
D03*
Y400185D02*
D03*
Y390185D02*
D03*
Y380185D02*
D03*
Y370185D02*
D03*
X405850Y560185D02*
D03*
Y550185D02*
D03*
Y540185D02*
D03*
Y530185D02*
D03*
Y520185D02*
D03*
Y510185D02*
D03*
Y500185D02*
D03*
Y490185D02*
D03*
Y480185D02*
D03*
Y470185D02*
D03*
Y460185D02*
D03*
Y450185D02*
D03*
Y440185D02*
D03*
Y430185D02*
D03*
Y420185D02*
D03*
Y410185D02*
D03*
Y400185D02*
D03*
Y390185D02*
D03*
Y380185D02*
D03*
Y370185D02*
D03*
D95*
X312899Y151667D02*
D03*
X315307Y157480D02*
D03*
X312899Y163293D02*
D03*
X307087Y165701D02*
D03*
D03*
X301274Y163293D02*
D03*
X298866Y157480D02*
D03*
X301274Y151667D02*
D03*
X307087Y149260D02*
D03*
X438884Y151667D02*
D03*
X441292Y157480D02*
D03*
X438884Y163293D02*
D03*
X433071Y165701D02*
D03*
D03*
X427258Y163293D02*
D03*
X424850Y157480D02*
D03*
X427258Y151667D02*
D03*
X433071Y149260D02*
D03*
X312899Y551274D02*
D03*
X315307Y557087D02*
D03*
X312899Y562899D02*
D03*
X307087Y565307D02*
D03*
D03*
X301274Y562899D02*
D03*
X298866Y557087D02*
D03*
X301274Y551274D02*
D03*
X307087Y548866D02*
D03*
D96*
Y157480D02*
D03*
X433071D02*
D03*
X307087Y557087D02*
D03*
D97*
X320866Y341535D02*
D03*
X391575D02*
D03*
D98*
X330866D02*
D03*
X421575D02*
D03*
X411575D02*
D03*
X401575D02*
D03*
X301575Y515039D02*
D03*
Y525039D02*
D03*
Y505039D02*
D03*
Y495039D02*
D03*
Y485039D02*
D03*
Y475039D02*
D03*
D99*
Y535039D02*
D03*
D100*
X433071Y534449D02*
D03*
D101*
Y544449D02*
D03*
D102*
X422441Y439961D02*
D03*
X309449Y439764D02*
D03*
D103*
X369291Y339764D02*
D03*
X396189Y363672D02*
D03*
X430118Y364173D02*
D03*
M02*
