G04*
G04 #@! TF.GenerationSoftware,Altium Limited,Altium Designer,21.9.2 (33)*
G04*
G04 Layer_Color=32896*
%FSLAX25Y25*%
%MOIN*%
G70*
G04*
G04 #@! TF.SameCoordinates,39B9B14E-A64B-4F8B-B52F-0CE4EF318544*
G04*
G04*
G04 #@! TF.FilePolarity,Positive*
G04*
G01*
G75*
%ADD10C,0.00787*%
%ADD19C,0.00800*%
%ADD20C,0.01200*%
G36*
X373588Y132915D02*
X373663Y132877D01*
X373794Y132784D01*
X373906Y132671D01*
X374000Y132559D01*
X374075Y132446D01*
X374122Y132353D01*
X374141Y132315D01*
X374160Y132287D01*
X374169Y132268D01*
Y132259D01*
X381721Y119394D01*
X381768Y119225D01*
X381796Y119066D01*
X381815Y118935D01*
Y118822D01*
X381805Y118729D01*
X381796Y118663D01*
X381777Y118626D01*
Y118607D01*
X381721Y118523D01*
X381656Y118448D01*
X381599Y118373D01*
X381534Y118316D01*
X381402Y118232D01*
X381271Y118176D01*
X381159Y118138D01*
X381075Y118120D01*
X381037Y118110D01*
X365783D01*
X365698Y118120D01*
X365623Y118129D01*
X365483Y118185D01*
X365352Y118260D01*
X365239Y118354D01*
X365155Y118448D01*
X365089Y118523D01*
X365042Y118579D01*
X365033Y118588D01*
Y118597D01*
X364986Y118719D01*
X364967Y118851D01*
Y118963D01*
X364977Y119075D01*
X364996Y119169D01*
X365014Y119244D01*
X365024Y119291D01*
X365033Y119310D01*
X372651Y132512D01*
X372716Y132596D01*
X372782Y132671D01*
X372857Y132737D01*
X372932Y132793D01*
X372998Y132831D01*
X373073Y132868D01*
X373204Y132915D01*
X373326Y132934D01*
X373429Y132943D01*
X373513D01*
X373588Y132915D01*
D02*
G37*
%LPC*%
G36*
X373391Y130703D02*
X367310Y120069D01*
X373462D01*
X372248Y121924D01*
X372604D01*
X371620Y125616D01*
X373597Y124819D01*
X372211Y127986D01*
X373841D01*
X375171Y122861D01*
X373232Y123638D01*
X373841Y121971D01*
X374291D01*
X373613Y120069D01*
X373462D01*
X373560Y119919D01*
X373613Y120069D01*
X379491D01*
X373391Y130703D01*
D02*
G37*
%LPD*%
D10*
X350472Y118013D02*
Y133368D01*
X396928Y118013D02*
Y133368D01*
D19*
X387178Y362941D02*
X387298Y363179D01*
X387536Y363417D01*
X387774Y363536D01*
X388250D01*
X388488Y363417D01*
X388726Y363179D01*
X388845Y362941D01*
X388964Y362583D01*
Y361988D01*
X388845Y361631D01*
X388726Y361393D01*
X388488Y361155D01*
X388250Y361036D01*
X387774D01*
X387536Y361155D01*
X387298Y361393D01*
X387178Y361631D01*
X386476Y363536D02*
Y361750D01*
X386357Y361393D01*
X386119Y361155D01*
X385762Y361036D01*
X385524D01*
X385167Y361155D01*
X384929Y361393D01*
X384810Y361750D01*
Y363536D01*
X383286D02*
Y361036D01*
X384120Y363536D02*
X382453D01*
X379359D02*
Y361036D01*
X380192Y363536D02*
X378526D01*
X378228D02*
Y361036D01*
Y363536D02*
X377157D01*
X376800Y363417D01*
X376681Y363298D01*
X376562Y363060D01*
Y362822D01*
X376681Y362583D01*
X376800Y362464D01*
X377157Y362345D01*
X378228D01*
X377395D02*
X376562Y361036D01*
X374098D02*
X375050Y363536D01*
X376002Y361036D01*
X375645Y361869D02*
X374455D01*
X371729Y362941D02*
X371848Y363179D01*
X372087Y363417D01*
X372324Y363536D01*
X372801D01*
X373039Y363417D01*
X373277Y363179D01*
X373396Y362941D01*
X373515Y362583D01*
Y361988D01*
X373396Y361631D01*
X373277Y361393D01*
X373039Y361155D01*
X372801Y361036D01*
X372324D01*
X372087Y361155D01*
X371848Y361393D01*
X371729Y361631D01*
X369480Y363536D02*
X371027D01*
Y361036D01*
X369480D01*
X371027Y362345D02*
X370075D01*
X367397Y363179D02*
X367635Y363417D01*
X367992Y363536D01*
X368468D01*
X368825Y363417D01*
X369063Y363179D01*
Y362941D01*
X368944Y362702D01*
X368825Y362583D01*
X368587Y362464D01*
X367873Y362226D01*
X367635Y362107D01*
X367516Y361988D01*
X367397Y361750D01*
Y361393D01*
X367635Y361155D01*
X367992Y361036D01*
X368468D01*
X368825Y361155D01*
X369063Y361393D01*
X364874Y363536D02*
Y361036D01*
Y363536D02*
X363803D01*
X363445Y363417D01*
X363327Y363298D01*
X363207Y363060D01*
Y362822D01*
X363327Y362583D01*
X363445Y362464D01*
X363803Y362345D01*
X364874D02*
X363803D01*
X363445Y362226D01*
X363327Y362107D01*
X363207Y361869D01*
Y361512D01*
X363327Y361274D01*
X363445Y361155D01*
X363803Y361036D01*
X364874D01*
X361101Y363536D02*
X362648D01*
Y361036D01*
X361101D01*
X362648Y362345D02*
X361696D01*
X360684Y363536D02*
Y361036D01*
Y363536D02*
X359137D01*
X360684Y362345D02*
X359732D01*
X358137Y363536D02*
X358375Y363417D01*
X358613Y363179D01*
X358732Y362941D01*
X358851Y362583D01*
Y361988D01*
X358732Y361631D01*
X358613Y361393D01*
X358375Y361155D01*
X358137Y361036D01*
X357661D01*
X357423Y361155D01*
X357185Y361393D01*
X357066Y361631D01*
X356947Y361988D01*
Y362583D01*
X357066Y362941D01*
X357185Y363179D01*
X357423Y363417D01*
X357661Y363536D01*
X358137D01*
X356364D02*
Y361036D01*
Y363536D02*
X355293D01*
X354935Y363417D01*
X354816Y363298D01*
X354697Y363060D01*
Y362822D01*
X354816Y362583D01*
X354935Y362464D01*
X355293Y362345D01*
X356364D01*
X355531D02*
X354697Y361036D01*
X352591Y363536D02*
X354138D01*
Y361036D01*
X352591D01*
X354138Y362345D02*
X353186D01*
X350210Y363536D02*
Y361036D01*
Y363536D02*
X349139D01*
X348782Y363417D01*
X348663Y363298D01*
X348544Y363060D01*
Y362822D01*
X348663Y362583D01*
X348782Y362464D01*
X349139Y362345D01*
X350210D02*
X349139D01*
X348782Y362226D01*
X348663Y362107D01*
X348544Y361869D01*
Y361512D01*
X348663Y361274D01*
X348782Y361155D01*
X349139Y361036D01*
X350210D01*
X347985Y363536D02*
Y361036D01*
Y363536D02*
X346913D01*
X346556Y363417D01*
X346437Y363298D01*
X346318Y363060D01*
Y362822D01*
X346437Y362583D01*
X346556Y362464D01*
X346913Y362345D01*
X347985D01*
X347151D02*
X346318Y361036D01*
X344212Y363536D02*
X345759D01*
Y361036D01*
X344212D01*
X345759Y362345D02*
X344807D01*
X341891Y361036D02*
X342843Y363536D01*
X343795Y361036D01*
X343438Y361869D02*
X342248D01*
X341307Y363536D02*
Y361036D01*
X339641Y363536D02*
X341307Y361869D01*
X340712Y362464D02*
X339641Y361036D01*
X339082Y363536D02*
Y361036D01*
X338558Y363536D02*
Y361036D01*
Y363536D02*
X336892Y361036D01*
Y363536D02*
Y361036D01*
X334416Y362941D02*
X334535Y363179D01*
X334773Y363417D01*
X335011Y363536D01*
X335487D01*
X335725Y363417D01*
X335963Y363179D01*
X336082Y362941D01*
X336201Y362583D01*
Y361988D01*
X336082Y361631D01*
X335963Y361393D01*
X335725Y361155D01*
X335487Y361036D01*
X335011D01*
X334773Y361155D01*
X334535Y361393D01*
X334416Y361631D01*
Y361988D01*
X335011D02*
X334416D01*
X421520Y347257D02*
Y348542D01*
X421662Y348971D01*
X421805Y349113D01*
X422091Y349256D01*
X422519D01*
X422805Y349113D01*
X422948Y348971D01*
X423091Y348542D01*
Y347257D01*
X420091D01*
X423091Y349928D02*
X420091Y350642D01*
X423091Y351356D02*
X420091Y350642D01*
X423091Y351356D02*
X420091Y352070D01*
X423091Y352784D02*
X420091Y352070D01*
X423091Y353384D02*
X420091D01*
X423091D02*
X420091Y354527D01*
X423091Y355669D02*
X420091Y354527D01*
X423091Y355669D02*
X420091D01*
X387178Y355067D02*
X387298Y355305D01*
X387536Y355543D01*
X387774Y355662D01*
X388250D01*
X388488Y355543D01*
X388726Y355305D01*
X388845Y355067D01*
X388964Y354710D01*
Y354114D01*
X388845Y353757D01*
X388726Y353519D01*
X388488Y353281D01*
X388250Y353162D01*
X387774D01*
X387536Y353281D01*
X387298Y353519D01*
X387178Y353757D01*
X386476Y355662D02*
Y353876D01*
X386357Y353519D01*
X386119Y353281D01*
X385762Y353162D01*
X385524D01*
X385167Y353281D01*
X384929Y353519D01*
X384810Y353876D01*
Y355662D01*
X383286D02*
Y353162D01*
X384120Y355662D02*
X382453D01*
X379359D02*
Y353162D01*
X380192Y355662D02*
X378526D01*
X378228D02*
Y353162D01*
Y355662D02*
X377157D01*
X376800Y355543D01*
X376681Y355424D01*
X376562Y355186D01*
Y354947D01*
X376681Y354710D01*
X376800Y354591D01*
X377157Y354471D01*
X378228D01*
X377395D02*
X376562Y353162D01*
X374098D02*
X375050Y355662D01*
X376002Y353162D01*
X375645Y353995D02*
X374455D01*
X371729Y355067D02*
X371848Y355305D01*
X372087Y355543D01*
X372324Y355662D01*
X372801D01*
X373039Y355543D01*
X373277Y355305D01*
X373396Y355067D01*
X373515Y354710D01*
Y354114D01*
X373396Y353757D01*
X373277Y353519D01*
X373039Y353281D01*
X372801Y353162D01*
X372324D01*
X372087Y353281D01*
X371848Y353519D01*
X371729Y353757D01*
X369480Y355662D02*
X371027D01*
Y353162D01*
X369480D01*
X371027Y354471D02*
X370075D01*
X367397Y355305D02*
X367635Y355543D01*
X367992Y355662D01*
X368468D01*
X368825Y355543D01*
X369063Y355305D01*
Y355067D01*
X368944Y354829D01*
X368825Y354710D01*
X368587Y354591D01*
X367873Y354352D01*
X367635Y354233D01*
X367516Y354114D01*
X367397Y353876D01*
Y353519D01*
X367635Y353281D01*
X367992Y353162D01*
X368468D01*
X368825Y353281D01*
X369063Y353519D01*
X364874Y355662D02*
Y353162D01*
Y355662D02*
X363803D01*
X363445Y355543D01*
X363327Y355424D01*
X363207Y355186D01*
Y354947D01*
X363327Y354710D01*
X363445Y354591D01*
X363803Y354471D01*
X364874D02*
X363803D01*
X363445Y354352D01*
X363327Y354233D01*
X363207Y353995D01*
Y353638D01*
X363327Y353400D01*
X363445Y353281D01*
X363803Y353162D01*
X364874D01*
X361101Y355662D02*
X362648D01*
Y353162D01*
X361101D01*
X362648Y354471D02*
X361696D01*
X360684Y355662D02*
Y353162D01*
Y355662D02*
X359137D01*
X360684Y354471D02*
X359732D01*
X358137Y355662D02*
X358375Y355543D01*
X358613Y355305D01*
X358732Y355067D01*
X358851Y354710D01*
Y354114D01*
X358732Y353757D01*
X358613Y353519D01*
X358375Y353281D01*
X358137Y353162D01*
X357661D01*
X357423Y353281D01*
X357185Y353519D01*
X357066Y353757D01*
X356947Y354114D01*
Y354710D01*
X357066Y355067D01*
X357185Y355305D01*
X357423Y355543D01*
X357661Y355662D01*
X358137D01*
X356364D02*
Y353162D01*
Y355662D02*
X355293D01*
X354935Y355543D01*
X354816Y355424D01*
X354697Y355186D01*
Y354947D01*
X354816Y354710D01*
X354935Y354591D01*
X355293Y354471D01*
X356364D01*
X355531D02*
X354697Y353162D01*
X352591Y355662D02*
X354138D01*
Y353162D01*
X352591D01*
X354138Y354471D02*
X353186D01*
X350210Y355662D02*
Y353162D01*
Y355662D02*
X349139D01*
X348782Y355543D01*
X348663Y355424D01*
X348544Y355186D01*
Y354947D01*
X348663Y354710D01*
X348782Y354591D01*
X349139Y354471D01*
X350210D02*
X349139D01*
X348782Y354352D01*
X348663Y354233D01*
X348544Y353995D01*
Y353638D01*
X348663Y353400D01*
X348782Y353281D01*
X349139Y353162D01*
X350210D01*
X347985Y355662D02*
Y353162D01*
Y355662D02*
X346913D01*
X346556Y355543D01*
X346437Y355424D01*
X346318Y355186D01*
Y354947D01*
X346437Y354710D01*
X346556Y354591D01*
X346913Y354471D01*
X347985D01*
X347151D02*
X346318Y353162D01*
X344212Y355662D02*
X345759D01*
Y353162D01*
X344212D01*
X345759Y354471D02*
X344807D01*
X341891Y353162D02*
X342843Y355662D01*
X343795Y353162D01*
X343438Y353995D02*
X342248D01*
X341307Y355662D02*
Y353162D01*
X339641Y355662D02*
X341307Y353995D01*
X340712Y354591D02*
X339641Y353162D01*
X339082Y355662D02*
Y353162D01*
X338558Y355662D02*
Y353162D01*
Y355662D02*
X336892Y353162D01*
Y355662D02*
Y353162D01*
X334416Y355067D02*
X334535Y355305D01*
X334773Y355543D01*
X335011Y355662D01*
X335487D01*
X335725Y355543D01*
X335963Y355305D01*
X336082Y355067D01*
X336201Y354710D01*
Y354114D01*
X336082Y353757D01*
X335963Y353519D01*
X335725Y353281D01*
X335487Y353162D01*
X335011D01*
X334773Y353281D01*
X334535Y353519D01*
X334416Y353757D01*
Y354114D01*
X335011D02*
X334416D01*
X412534Y349399D02*
X412820Y349256D01*
X413105Y348971D01*
X413248Y348685D01*
Y348114D01*
X413105Y347828D01*
X412820Y347542D01*
X412534Y347399D01*
X412106Y347257D01*
X411391D01*
X410963Y347399D01*
X410677Y347542D01*
X410392Y347828D01*
X410249Y348114D01*
Y348685D01*
X410392Y348971D01*
X410677Y349256D01*
X410963Y349399D01*
X411391D01*
Y348685D02*
Y349399D01*
X413248Y350085D02*
X410249D01*
X413248D02*
X410249Y352084D01*
X413248D02*
X410249D01*
X413248Y352913D02*
X410249D01*
X413248D02*
Y353912D01*
X413105Y354341D01*
X412820Y354627D01*
X412534Y354769D01*
X412106Y354912D01*
X411391D01*
X410963Y354769D01*
X410677Y354627D01*
X410392Y354341D01*
X410249Y353912D01*
Y352913D01*
X321983Y349399D02*
X322269Y349256D01*
X322554Y348971D01*
X322697Y348685D01*
Y348114D01*
X322554Y347828D01*
X322269Y347542D01*
X321983Y347399D01*
X321554Y347257D01*
X320840D01*
X320412Y347399D01*
X320126Y347542D01*
X319841Y347828D01*
X319698Y348114D01*
Y348685D01*
X319841Y348971D01*
X320126Y349256D01*
X320412Y349399D01*
X320840D01*
Y348685D02*
Y349399D01*
X322697Y350085D02*
X319698D01*
X322697D02*
X319698Y352084D01*
X322697D02*
X319698D01*
X322697Y352913D02*
X319698D01*
X322697D02*
Y353912D01*
X322554Y354341D01*
X322269Y354626D01*
X321983Y354769D01*
X321554Y354912D01*
X320840D01*
X320412Y354769D01*
X320126Y354626D01*
X319841Y354341D01*
X319698Y353912D01*
Y352913D01*
X332540Y347257D02*
X329540D01*
X332540Y349256D02*
X329540D01*
X331111Y347257D02*
Y349256D01*
X332540Y350085D02*
X329540Y351227D01*
X332540Y352370D02*
X329540Y351227D01*
X330968Y352755D02*
Y354041D01*
X331111Y354469D01*
X331254Y354612D01*
X331540Y354755D01*
X331968D01*
X332254Y354612D01*
X332397Y354469D01*
X332540Y354041D01*
Y352755D01*
X329540D01*
X441411Y546497D02*
Y543123D01*
X443098Y544810D02*
X439724D01*
X443098Y534010D02*
X439724D01*
X422917Y551215D02*
X422766D01*
X422467Y551065D01*
X422317Y550915D01*
X422167Y550616D01*
Y550016D01*
X422317Y549716D01*
X422467Y549566D01*
X422766Y549416D01*
X423066D01*
X423366Y549566D01*
X423816Y549866D01*
X425316Y551365D01*
Y549266D01*
X423216Y548561D02*
X425316Y546912D01*
X423216D02*
X425316Y548561D01*
Y541379D02*
X422167Y542578D01*
X425316Y543778D01*
X424266Y543328D02*
Y541829D01*
X425316Y538245D02*
X422167Y539444D01*
X425316Y540644D01*
X424266Y540194D02*
Y538695D01*
X422167Y535036D02*
X425316D01*
X422167D02*
Y533686D01*
X422317Y533237D01*
X422467Y533086D01*
X422766Y532937D01*
X423066D01*
X423366Y533086D01*
X423516Y533237D01*
X423666Y533686D01*
Y535036D02*
Y533686D01*
X423816Y533237D01*
X423966Y533086D01*
X424266Y532937D01*
X424716D01*
X425016Y533086D01*
X425166Y533237D01*
X425316Y533686D01*
Y535036D01*
X423216Y530432D02*
X425316D01*
X423666D02*
X423366Y530732D01*
X423216Y531032D01*
Y531482D01*
X423366Y531782D01*
X423666Y532082D01*
X424116Y532232D01*
X424416D01*
X424866Y532082D01*
X425166Y531782D01*
X425316Y531482D01*
Y531032D01*
X425166Y530732D01*
X424866Y530432D01*
X422167Y529143D02*
X424716D01*
X425166Y528993D01*
X425316Y528693D01*
Y528393D01*
X423216Y529593D02*
Y528543D01*
X422167Y527493D02*
X424716D01*
X425166Y527344D01*
X425316Y527044D01*
Y526744D01*
X423216Y527943D02*
Y526894D01*
X424116Y526294D02*
Y524494D01*
X423816D01*
X423516Y524644D01*
X423366Y524794D01*
X423216Y525094D01*
Y525544D01*
X423366Y525844D01*
X423666Y526144D01*
X424116Y526294D01*
X424416D01*
X424866Y526144D01*
X425166Y525844D01*
X425316Y525544D01*
Y525094D01*
X425166Y524794D01*
X424866Y524494D01*
X423216Y523820D02*
X425316D01*
X424116D02*
X423666Y523670D01*
X423366Y523370D01*
X423216Y523070D01*
Y522620D01*
Y522185D02*
X425316Y521285D01*
X423216Y520386D02*
X425316Y521285D01*
X425915Y521585D01*
X426215Y521885D01*
X426365Y522185D01*
Y522335D01*
X403406Y347257D02*
X400406Y348399D01*
X403406Y349542D02*
X400406Y348399D01*
X402692Y352070D02*
X402977Y351927D01*
X403263Y351642D01*
X403406Y351356D01*
Y350784D01*
X403263Y350499D01*
X402977Y350213D01*
X402692Y350070D01*
X402263Y349928D01*
X401549D01*
X401120Y350070D01*
X400835Y350213D01*
X400549Y350499D01*
X400406Y350784D01*
Y351356D01*
X400549Y351642D01*
X400835Y351927D01*
X401120Y352070D01*
X402692Y355055D02*
X402977Y354912D01*
X403263Y354626D01*
X403406Y354341D01*
Y353770D01*
X403263Y353484D01*
X402977Y353198D01*
X402692Y353056D01*
X402263Y352913D01*
X401549D01*
X401120Y353056D01*
X400835Y353198D01*
X400549Y353484D01*
X400406Y353770D01*
Y354341D01*
X400549Y354626D01*
X400835Y354912D01*
X401120Y355055D01*
X392849Y349399D02*
X393135Y349256D01*
X393420Y348971D01*
X393563Y348685D01*
Y348114D01*
X393420Y347828D01*
X393135Y347542D01*
X392849Y347399D01*
X392421Y347257D01*
X391706D01*
X391278Y347399D01*
X390992Y347542D01*
X390707Y347828D01*
X390564Y348114D01*
Y348685D01*
X390707Y348971D01*
X390992Y349256D01*
X391278Y349399D01*
X393563Y350242D02*
X390564D01*
X393563Y352241D02*
X390564D01*
X392135Y350242D02*
Y352241D01*
X392849Y355212D02*
X393135Y355069D01*
X393420Y354784D01*
X393563Y354498D01*
Y353927D01*
X393420Y353641D01*
X393135Y353355D01*
X392849Y353213D01*
X392421Y353070D01*
X391706D01*
X391278Y353213D01*
X390992Y353355D01*
X390707Y353641D01*
X390564Y353927D01*
Y354498D01*
X390707Y354784D01*
X390992Y355069D01*
X391278Y355212D01*
X391706D01*
Y354498D02*
Y355212D01*
D20*
X396438Y143994D02*
Y138995D01*
X393105Y143994D02*
Y138995D01*
X396438Y141614D02*
X393105D01*
X391724Y143994D02*
Y138995D01*
X387106Y142804D02*
X387345Y143280D01*
X387821Y143756D01*
X388297Y143994D01*
X389249D01*
X389725Y143756D01*
X390201Y143280D01*
X390439Y142804D01*
X390677Y142090D01*
Y140900D01*
X390439Y140185D01*
X390201Y139709D01*
X389725Y139233D01*
X389249Y138995D01*
X388297D01*
X387821Y139233D01*
X387345Y139709D01*
X387106Y140185D01*
Y140900D01*
X388297D02*
X387106D01*
X385964Y143994D02*
Y138995D01*
X382631Y143994D02*
Y138995D01*
X385964Y141614D02*
X382631D01*
X377323Y143994D02*
X375418Y138995D01*
X373514Y143994D02*
X375418Y138995D01*
X371443Y143994D02*
X371919Y143756D01*
X372395Y143280D01*
X372633Y142804D01*
X372871Y142090D01*
Y140900D01*
X372633Y140185D01*
X372395Y139709D01*
X371919Y139233D01*
X371443Y138995D01*
X370491D01*
X370015Y139233D01*
X369539Y139709D01*
X369301Y140185D01*
X369063Y140900D01*
Y142090D01*
X369301Y142804D01*
X369539Y143280D01*
X370015Y143756D01*
X370491Y143994D01*
X371443D01*
X367896D02*
Y138995D01*
X365040D01*
X362826Y143994D02*
Y138995D01*
X364492Y143994D02*
X361160D01*
X356756Y138995D02*
X358660Y143994D01*
X360564Y138995D01*
X359850Y140662D02*
X357470D01*
X352019Y142804D02*
X352257Y143280D01*
X352733Y143756D01*
X353209Y143994D01*
X354161D01*
X354637Y143756D01*
X355113Y143280D01*
X355351Y142804D01*
X355589Y142090D01*
Y140900D01*
X355351Y140185D01*
X355113Y139709D01*
X354637Y139233D01*
X354161Y138995D01*
X353209D01*
X352733Y139233D01*
X352257Y139709D01*
X352019Y140185D01*
Y140900D01*
X353209D02*
X352019D01*
X347782Y143994D02*
X350876D01*
Y138995D01*
X347782D01*
X350876Y141614D02*
X348972D01*
M02*
