G04*
G04 #@! TF.GenerationSoftware,Altium Limited,Altium Designer,21.9.2 (33)*
G04*
G04 Layer_Color=8388736*
%FSLAX25Y25*%
%MOIN*%
G70*
G04*
G04 #@! TF.SameCoordinates,39B9B14E-A64B-4F8B-B52F-0CE4EF318544*
G04*
G04*
G04 #@! TF.FilePolarity,Negative*
G04*
G01*
G75*
%ADD49R,0.05328X0.05918*%
%ADD50O,0.04934X0.06509*%
%ADD51O,0.05131X0.07887*%
G04:AMPARAMS|DCode=52|XSize=67.06mil|YSize=67.06mil|CornerRadius=15.81mil|HoleSize=0mil|Usage=FLASHONLY|Rotation=0.000|XOffset=0mil|YOffset=0mil|HoleType=Round|Shape=RoundedRectangle|*
%AMROUNDEDRECTD52*
21,1,0.06706,0.03543,0,0,0.0*
21,1,0.03543,0.06706,0,0,0.0*
1,1,0.03162,0.01772,-0.01772*
1,1,0.03162,-0.01772,-0.01772*
1,1,0.03162,-0.01772,0.01772*
1,1,0.03162,0.01772,0.01772*
%
%ADD52ROUNDEDRECTD52*%
%ADD53R,0.09816X0.20800*%
%ADD54R,0.10308X0.20800*%
G04:AMPARAMS|DCode=55|XSize=94.61mil|YSize=67.06mil|CornerRadius=11.38mil|HoleSize=0mil|Usage=FLASHONLY|Rotation=0.000|XOffset=0mil|YOffset=0mil|HoleType=Round|Shape=RoundedRectangle|*
%AMROUNDEDRECTD55*
21,1,0.09461,0.04429,0,0,0.0*
21,1,0.07185,0.06706,0,0,0.0*
1,1,0.02276,0.03593,-0.02215*
1,1,0.02276,-0.03593,-0.02215*
1,1,0.02276,-0.03593,0.02215*
1,1,0.02276,0.03593,0.02215*
%
%ADD55ROUNDEDRECTD55*%
%ADD56R,0.04737X0.11824*%
G04:AMPARAMS|DCode=57|XSize=47.37mil|YSize=43.43mil|CornerRadius=8.43mil|HoleSize=0mil|Usage=FLASHONLY|Rotation=90.000|XOffset=0mil|YOffset=0mil|HoleType=Round|Shape=RoundedRectangle|*
%AMROUNDEDRECTD57*
21,1,0.04737,0.02657,0,0,90.0*
21,1,0.03051,0.04343,0,0,90.0*
1,1,0.01686,0.01329,0.01526*
1,1,0.01686,0.01329,-0.01526*
1,1,0.01686,-0.01329,-0.01526*
1,1,0.01686,-0.01329,0.01526*
%
%ADD57ROUNDEDRECTD57*%
G04:AMPARAMS|DCode=58|XSize=39.5mil|YSize=39.5mil|CornerRadius=7.94mil|HoleSize=0mil|Usage=FLASHONLY|Rotation=270.000|XOffset=0mil|YOffset=0mil|HoleType=Round|Shape=RoundedRectangle|*
%AMROUNDEDRECTD58*
21,1,0.03950,0.02362,0,0,270.0*
21,1,0.02362,0.03950,0,0,270.0*
1,1,0.01587,-0.01181,-0.01181*
1,1,0.01587,-0.01181,0.01181*
1,1,0.01587,0.01181,0.01181*
1,1,0.01587,0.01181,-0.01181*
%
%ADD58ROUNDEDRECTD58*%
G04:AMPARAMS|DCode=59|XSize=47.37mil|YSize=43.43mil|CornerRadius=8.43mil|HoleSize=0mil|Usage=FLASHONLY|Rotation=180.000|XOffset=0mil|YOffset=0mil|HoleType=Round|Shape=RoundedRectangle|*
%AMROUNDEDRECTD59*
21,1,0.04737,0.02657,0,0,180.0*
21,1,0.03051,0.04343,0,0,180.0*
1,1,0.01686,-0.01526,0.01329*
1,1,0.01686,0.01526,0.01329*
1,1,0.01686,0.01526,-0.01329*
1,1,0.01686,-0.01526,-0.01329*
%
%ADD59ROUNDEDRECTD59*%
%ADD60R,0.11233X0.05918*%
%ADD61R,0.05918X0.05328*%
G04:AMPARAMS|DCode=62|XSize=59.18mil|YSize=39.5mil|CornerRadius=7.94mil|HoleSize=0mil|Usage=FLASHONLY|Rotation=90.000|XOffset=0mil|YOffset=0mil|HoleType=Round|Shape=RoundedRectangle|*
%AMROUNDEDRECTD62*
21,1,0.05918,0.02362,0,0,90.0*
21,1,0.04331,0.03950,0,0,90.0*
1,1,0.01587,0.01181,0.02165*
1,1,0.01587,0.01181,-0.02165*
1,1,0.01587,-0.01181,-0.02165*
1,1,0.01587,-0.01181,0.02165*
%
%ADD62ROUNDEDRECTD62*%
%ADD63R,0.06706X0.03950*%
%ADD64R,0.03950X0.06706*%
G04:AMPARAMS|DCode=65|XSize=63.12mil|YSize=47.37mil|CornerRadius=8.92mil|HoleSize=0mil|Usage=FLASHONLY|Rotation=90.000|XOffset=0mil|YOffset=0mil|HoleType=Round|Shape=RoundedRectangle|*
%AMROUNDEDRECTD65*
21,1,0.06312,0.02953,0,0,90.0*
21,1,0.04528,0.04737,0,0,90.0*
1,1,0.01784,0.01476,0.02264*
1,1,0.01784,0.01476,-0.02264*
1,1,0.01784,-0.01476,-0.02264*
1,1,0.01784,-0.01476,0.02264*
%
%ADD65ROUNDEDRECTD65*%
%ADD66R,0.20485X0.08674*%
%ADD67R,0.04816X0.08280*%
%ADD68R,0.22650X0.29147*%
%ADD69R,0.04540X0.12611*%
%ADD70R,0.02572X0.04147*%
G04:AMPARAMS|DCode=71|XSize=139.89mil|YSize=88.71mil|CornerRadius=14.09mil|HoleSize=0mil|Usage=FLASHONLY|Rotation=90.000|XOffset=0mil|YOffset=0mil|HoleType=Round|Shape=RoundedRectangle|*
%AMROUNDEDRECTD71*
21,1,0.13989,0.06053,0,0,90.0*
21,1,0.11171,0.08871,0,0,90.0*
1,1,0.02818,0.03027,0.05586*
1,1,0.02818,0.03027,-0.05586*
1,1,0.02818,-0.03027,-0.05586*
1,1,0.02818,-0.03027,0.05586*
%
%ADD71ROUNDEDRECTD71*%
%ADD72R,0.04540X0.03753*%
%ADD73R,0.03359X0.05524*%
G04:AMPARAMS|DCode=74|XSize=59.18mil|YSize=39.5mil|CornerRadius=7.94mil|HoleSize=0mil|Usage=FLASHONLY|Rotation=0.000|XOffset=0mil|YOffset=0mil|HoleType=Round|Shape=RoundedRectangle|*
%AMROUNDEDRECTD74*
21,1,0.05918,0.02362,0,0,0.0*
21,1,0.04331,0.03950,0,0,0.0*
1,1,0.01587,0.02165,-0.01181*
1,1,0.01587,-0.02165,-0.01181*
1,1,0.01587,-0.02165,0.01181*
1,1,0.01587,0.02165,0.01181*
%
%ADD74ROUNDEDRECTD74*%
%ADD75R,0.05800X0.10800*%
%ADD76O,0.08300X0.06800*%
%ADD77C,0.02200*%
%ADD78C,0.21666*%
%ADD79C,0.00800*%
%ADD80R,0.06706X0.06706*%
%ADD81C,0.06706*%
%ADD82R,0.06706X0.06706*%
%ADD83C,0.07493*%
%ADD84R,0.07493X0.07493*%
G36*
X415693Y446642D02*
X405850D01*
X405665Y446647D01*
X405480Y446661D01*
X405296Y446685D01*
X405114Y446719D01*
X404933Y446763D01*
X404755Y446815D01*
X404581Y446877D01*
X404409Y446948D01*
X404242Y447028D01*
X404079Y447116D01*
X403921Y447213D01*
X403768Y447318D01*
X403620Y447431D01*
X403479Y447552D01*
X403345Y447680D01*
X403217Y447814D01*
X403097Y447955D01*
X402984Y448102D01*
X402879Y448255D01*
X402782Y448413D01*
X402693Y448576D01*
X402613Y448744D01*
X402542Y448915D01*
X402481Y449090D01*
X402428Y449268D01*
X402385Y449448D01*
X402351Y449631D01*
X402326Y449815D01*
X402312Y450000D01*
X402307Y450185D01*
X402312Y450371D01*
X402326Y450555D01*
X402351Y450739D01*
X402385Y450922D01*
X402428Y451102D01*
X402481Y451280D01*
X402542Y451455D01*
X402613Y451626D01*
X402693Y451794D01*
X402782Y451957D01*
X402879Y452115D01*
X402984Y452268D01*
X403097Y452415D01*
X403217Y452556D01*
X403345Y452691D01*
X403479Y452818D01*
X403620Y452939D01*
X403768Y453052D01*
X403921Y453157D01*
X404079Y453254D01*
X404242Y453342D01*
X404409Y453422D01*
X404581Y453493D01*
X404755Y453555D01*
X404933Y453608D01*
X405114Y453651D01*
X405296Y453685D01*
X405480Y453709D01*
X405665Y453723D01*
X405850Y453728D01*
X415693D01*
Y446642D01*
D02*
G37*
G36*
X336036Y453723D02*
X336221Y453709D01*
X336405Y453685D01*
X336587Y453651D01*
X336768Y453608D01*
X336945Y453555D01*
X337120Y453493D01*
X337292Y453422D01*
X337459Y453342D01*
X337622Y453254D01*
X337780Y453157D01*
X337933Y453052D01*
X338080Y452939D01*
X338221Y452818D01*
X338356Y452691D01*
X338484Y452556D01*
X338604Y452415D01*
X338717Y452268D01*
X338822Y452115D01*
X338919Y451957D01*
X339007Y451794D01*
X339087Y451626D01*
X339158Y451455D01*
X339220Y451280D01*
X339273Y451102D01*
X339316Y450922D01*
X339350Y450739D01*
X339374Y450555D01*
X339389Y450371D01*
X339394Y450185D01*
X339389Y450000D01*
X339374Y449815D01*
X339350Y449631D01*
X339316Y449448D01*
X339273Y449268D01*
X339220Y449090D01*
X339158Y448915D01*
X339087Y448744D01*
X339007Y448576D01*
X338919Y448413D01*
X338822Y448255D01*
X338717Y448102D01*
X338604Y447955D01*
X338484Y447814D01*
X338356Y447680D01*
X338221Y447552D01*
X338080Y447431D01*
X337933Y447318D01*
X337780Y447213D01*
X337622Y447116D01*
X337459Y447028D01*
X337292Y446948D01*
X337120Y446877D01*
X336945Y446815D01*
X336768Y446763D01*
X336587Y446719D01*
X336405Y446685D01*
X336221Y446661D01*
X336036Y446647D01*
X335850Y446642D01*
X326008D01*
Y453728D01*
X335850D01*
X336036Y453723D01*
D02*
G37*
G36*
X415693Y436642D02*
X403488D01*
X403426Y436643D01*
X403365Y436648D01*
X403303Y436656D01*
X403243Y436667D01*
X403183Y436682D01*
X403123Y436699D01*
X403065Y436720D01*
X403008Y436744D01*
X402952Y436770D01*
X402898Y436800D01*
X402845Y436832D01*
X402794Y436867D01*
X402745Y436905D01*
X402698Y436945D01*
X402653Y436988D01*
X402610Y437033D01*
X402570Y437079D01*
X402533Y437129D01*
X402498Y437180D01*
X402465Y437232D01*
X402436Y437287D01*
X402409Y437342D01*
X402386Y437400D01*
X402365Y437458D01*
X402347Y437517D01*
X402333Y437577D01*
X402322Y437638D01*
X402314Y437699D01*
X402309Y437761D01*
X402307Y437823D01*
Y442547D01*
X402309Y442609D01*
X402314Y442671D01*
X402322Y442732D01*
X402333Y442793D01*
X402347Y442853D01*
X402365Y442912D01*
X402386Y442971D01*
X402409Y443028D01*
X402436Y443083D01*
X402465Y443138D01*
X402498Y443190D01*
X402533Y443242D01*
X402570Y443291D01*
X402610Y443338D01*
X402653Y443382D01*
X402698Y443425D01*
X402745Y443465D01*
X402794Y443503D01*
X402845Y443538D01*
X402898Y443570D01*
X402952Y443600D01*
X403008Y443626D01*
X403065Y443650D01*
X403123Y443671D01*
X403183Y443688D01*
X403243Y443703D01*
X403303Y443714D01*
X403365Y443722D01*
X403426Y443727D01*
X403488Y443728D01*
X415693D01*
Y436642D01*
D02*
G37*
G36*
X338274Y443727D02*
X338336Y443722D01*
X338397Y443714D01*
X338458Y443703D01*
X338518Y443688D01*
X338578Y443671D01*
X338636Y443650D01*
X338693Y443626D01*
X338749Y443600D01*
X338803Y443570D01*
X338856Y443538D01*
X338907Y443503D01*
X338956Y443465D01*
X339003Y443425D01*
X339048Y443382D01*
X339090Y443338D01*
X339130Y443291D01*
X339168Y443242D01*
X339203Y443190D01*
X339235Y443138D01*
X339265Y443083D01*
X339292Y443028D01*
X339315Y442971D01*
X339336Y442912D01*
X339353Y442853D01*
X339368Y442793D01*
X339379Y442732D01*
X339387Y442671D01*
X339392Y442609D01*
X339394Y442547D01*
Y437823D01*
X339392Y437761D01*
X339387Y437699D01*
X339379Y437638D01*
X339368Y437577D01*
X339353Y437517D01*
X339336Y437458D01*
X339315Y437400D01*
X339292Y437342D01*
X339265Y437287D01*
X339235Y437232D01*
X339203Y437180D01*
X339168Y437129D01*
X339130Y437079D01*
X339090Y437033D01*
X339048Y436988D01*
X339003Y436945D01*
X338956Y436905D01*
X338907Y436867D01*
X338856Y436832D01*
X338803Y436800D01*
X338749Y436770D01*
X338693Y436744D01*
X338636Y436720D01*
X338578Y436699D01*
X338518Y436682D01*
X338458Y436667D01*
X338397Y436656D01*
X338336Y436648D01*
X338274Y436643D01*
X338213Y436642D01*
X326008D01*
Y443728D01*
X338213D01*
X338274Y443727D01*
D02*
G37*
G36*
X415693Y426642D02*
X405850D01*
X405665Y426647D01*
X405480Y426661D01*
X405296Y426685D01*
X405114Y426719D01*
X404933Y426762D01*
X404755Y426815D01*
X404581Y426877D01*
X404409Y426948D01*
X404242Y427028D01*
X404079Y427116D01*
X403921Y427213D01*
X403768Y427318D01*
X403620Y427431D01*
X403479Y427552D01*
X403345Y427679D01*
X403217Y427814D01*
X403097Y427955D01*
X402984Y428102D01*
X402879Y428255D01*
X402782Y428413D01*
X402693Y428576D01*
X402613Y428744D01*
X402542Y428915D01*
X402481Y429090D01*
X402428Y429268D01*
X402385Y429448D01*
X402351Y429631D01*
X402326Y429815D01*
X402312Y430000D01*
X402307Y430185D01*
X402312Y430371D01*
X402326Y430555D01*
X402351Y430739D01*
X402385Y430922D01*
X402428Y431102D01*
X402481Y431280D01*
X402542Y431455D01*
X402613Y431626D01*
X402693Y431794D01*
X402782Y431957D01*
X402879Y432115D01*
X402984Y432268D01*
X403097Y432415D01*
X403217Y432556D01*
X403345Y432690D01*
X403479Y432818D01*
X403620Y432939D01*
X403768Y433052D01*
X403921Y433157D01*
X404079Y433254D01*
X404242Y433342D01*
X404409Y433422D01*
X404581Y433493D01*
X404755Y433555D01*
X404933Y433608D01*
X405114Y433651D01*
X405296Y433685D01*
X405480Y433709D01*
X405665Y433723D01*
X405850Y433728D01*
X415693D01*
Y426642D01*
D02*
G37*
G36*
X336036Y433723D02*
X336221Y433709D01*
X336405Y433685D01*
X336587Y433651D01*
X336768Y433608D01*
X336945Y433555D01*
X337120Y433493D01*
X337292Y433422D01*
X337459Y433342D01*
X337622Y433254D01*
X337780Y433157D01*
X337933Y433052D01*
X338080Y432939D01*
X338221Y432818D01*
X338356Y432690D01*
X338484Y432556D01*
X338604Y432415D01*
X338717Y432268D01*
X338822Y432115D01*
X338919Y431957D01*
X339007Y431794D01*
X339087Y431626D01*
X339158Y431455D01*
X339220Y431280D01*
X339273Y431102D01*
X339316Y430922D01*
X339350Y430739D01*
X339374Y430555D01*
X339389Y430371D01*
X339394Y430185D01*
X339389Y430000D01*
X339374Y429815D01*
X339350Y429631D01*
X339316Y429448D01*
X339273Y429268D01*
X339220Y429090D01*
X339158Y428915D01*
X339087Y428744D01*
X339007Y428576D01*
X338919Y428413D01*
X338822Y428255D01*
X338717Y428102D01*
X338604Y427955D01*
X338484Y427814D01*
X338356Y427679D01*
X338221Y427552D01*
X338080Y427431D01*
X337933Y427318D01*
X337780Y427213D01*
X337622Y427116D01*
X337459Y427028D01*
X337292Y426948D01*
X337120Y426877D01*
X336945Y426815D01*
X336768Y426762D01*
X336587Y426719D01*
X336405Y426685D01*
X336221Y426661D01*
X336036Y426647D01*
X335850Y426642D01*
X326008D01*
Y433728D01*
X335850D01*
X336036Y433723D01*
D02*
G37*
G36*
X415693Y416642D02*
X405850D01*
X405665Y416647D01*
X405480Y416661D01*
X405296Y416685D01*
X405114Y416719D01*
X404933Y416762D01*
X404755Y416815D01*
X404581Y416877D01*
X404409Y416948D01*
X404242Y417028D01*
X404079Y417116D01*
X403921Y417213D01*
X403768Y417318D01*
X403620Y417431D01*
X403479Y417552D01*
X403345Y417680D01*
X403217Y417814D01*
X403097Y417955D01*
X402984Y418102D01*
X402879Y418255D01*
X402782Y418413D01*
X402693Y418576D01*
X402613Y418744D01*
X402542Y418915D01*
X402481Y419090D01*
X402428Y419268D01*
X402385Y419448D01*
X402351Y419631D01*
X402326Y419815D01*
X402312Y420000D01*
X402307Y420185D01*
X402312Y420370D01*
X402326Y420555D01*
X402351Y420739D01*
X402385Y420922D01*
X402428Y421102D01*
X402481Y421280D01*
X402542Y421455D01*
X402613Y421626D01*
X402693Y421794D01*
X402782Y421957D01*
X402879Y422115D01*
X402984Y422268D01*
X403097Y422415D01*
X403217Y422556D01*
X403345Y422690D01*
X403479Y422818D01*
X403620Y422939D01*
X403768Y423052D01*
X403921Y423157D01*
X404079Y423254D01*
X404242Y423342D01*
X404409Y423422D01*
X404581Y423493D01*
X404755Y423555D01*
X404933Y423608D01*
X405114Y423651D01*
X405296Y423685D01*
X405480Y423709D01*
X405665Y423724D01*
X405850Y423728D01*
X415693D01*
Y416642D01*
D02*
G37*
G36*
X336036Y423724D02*
X336221Y423709D01*
X336405Y423685D01*
X336587Y423651D01*
X336768Y423608D01*
X336945Y423555D01*
X337120Y423493D01*
X337292Y423422D01*
X337459Y423342D01*
X337622Y423254D01*
X337780Y423157D01*
X337933Y423052D01*
X338080Y422939D01*
X338221Y422818D01*
X338356Y422690D01*
X338484Y422556D01*
X338604Y422415D01*
X338717Y422268D01*
X338822Y422115D01*
X338919Y421957D01*
X339007Y421794D01*
X339087Y421626D01*
X339158Y421455D01*
X339220Y421280D01*
X339273Y421102D01*
X339316Y420922D01*
X339350Y420739D01*
X339374Y420555D01*
X339389Y420370D01*
X339394Y420185D01*
X339389Y420000D01*
X339374Y419815D01*
X339350Y419631D01*
X339316Y419448D01*
X339273Y419268D01*
X339220Y419090D01*
X339158Y418915D01*
X339087Y418744D01*
X339007Y418576D01*
X338919Y418413D01*
X338822Y418255D01*
X338717Y418102D01*
X338604Y417955D01*
X338484Y417814D01*
X338356Y417680D01*
X338221Y417552D01*
X338080Y417431D01*
X337933Y417318D01*
X337780Y417213D01*
X337622Y417116D01*
X337459Y417028D01*
X337292Y416948D01*
X337120Y416877D01*
X336945Y416815D01*
X336768Y416762D01*
X336587Y416719D01*
X336405Y416685D01*
X336221Y416661D01*
X336036Y416647D01*
X335850Y416642D01*
X326008D01*
Y423728D01*
X335850D01*
X336036Y423724D01*
D02*
G37*
G36*
X415693Y406642D02*
X405850D01*
X405665Y406647D01*
X405480Y406661D01*
X405296Y406685D01*
X405114Y406719D01*
X404933Y406763D01*
X404755Y406815D01*
X404581Y406877D01*
X404409Y406948D01*
X404242Y407028D01*
X404079Y407116D01*
X403921Y407213D01*
X403768Y407318D01*
X403620Y407431D01*
X403479Y407552D01*
X403345Y407680D01*
X403217Y407814D01*
X403097Y407955D01*
X402984Y408102D01*
X402879Y408255D01*
X402782Y408413D01*
X402693Y408576D01*
X402613Y408744D01*
X402542Y408915D01*
X402481Y409090D01*
X402428Y409268D01*
X402385Y409448D01*
X402351Y409631D01*
X402326Y409815D01*
X402312Y410000D01*
X402307Y410185D01*
X402312Y410370D01*
X402326Y410555D01*
X402351Y410739D01*
X402385Y410922D01*
X402428Y411102D01*
X402481Y411280D01*
X402542Y411455D01*
X402613Y411626D01*
X402693Y411794D01*
X402782Y411957D01*
X402879Y412115D01*
X402984Y412268D01*
X403097Y412415D01*
X403217Y412556D01*
X403345Y412690D01*
X403479Y412818D01*
X403620Y412939D01*
X403768Y413052D01*
X403921Y413157D01*
X404079Y413254D01*
X404242Y413342D01*
X404409Y413422D01*
X404581Y413493D01*
X404755Y413555D01*
X404933Y413608D01*
X405114Y413651D01*
X405296Y413685D01*
X405480Y413709D01*
X405665Y413724D01*
X405850Y413728D01*
X415693D01*
Y406642D01*
D02*
G37*
G36*
X336036Y413724D02*
X336221Y413709D01*
X336405Y413685D01*
X336587Y413651D01*
X336768Y413608D01*
X336945Y413555D01*
X337120Y413493D01*
X337292Y413422D01*
X337459Y413342D01*
X337622Y413254D01*
X337780Y413157D01*
X337933Y413052D01*
X338080Y412939D01*
X338221Y412818D01*
X338356Y412690D01*
X338484Y412556D01*
X338604Y412415D01*
X338717Y412268D01*
X338822Y412115D01*
X338919Y411957D01*
X339007Y411794D01*
X339087Y411626D01*
X339158Y411455D01*
X339220Y411280D01*
X339273Y411102D01*
X339316Y410922D01*
X339350Y410739D01*
X339374Y410555D01*
X339389Y410370D01*
X339394Y410185D01*
X339389Y410000D01*
X339374Y409815D01*
X339350Y409631D01*
X339316Y409448D01*
X339273Y409268D01*
X339220Y409090D01*
X339158Y408915D01*
X339087Y408744D01*
X339007Y408576D01*
X338919Y408413D01*
X338822Y408255D01*
X338717Y408102D01*
X338604Y407955D01*
X338484Y407814D01*
X338356Y407680D01*
X338221Y407552D01*
X338080Y407431D01*
X337933Y407318D01*
X337780Y407213D01*
X337622Y407116D01*
X337459Y407028D01*
X337292Y406948D01*
X337120Y406877D01*
X336945Y406815D01*
X336768Y406763D01*
X336587Y406719D01*
X336405Y406685D01*
X336221Y406661D01*
X336036Y406647D01*
X335850Y406642D01*
X326008D01*
Y413728D01*
X335850D01*
X336036Y413724D01*
D02*
G37*
G36*
X415693Y396642D02*
X405850D01*
X405665Y396647D01*
X405480Y396661D01*
X405296Y396685D01*
X405114Y396719D01*
X404933Y396762D01*
X404755Y396815D01*
X404581Y396877D01*
X404409Y396948D01*
X404242Y397028D01*
X404079Y397116D01*
X403921Y397213D01*
X403768Y397318D01*
X403620Y397431D01*
X403479Y397552D01*
X403345Y397679D01*
X403217Y397814D01*
X403097Y397955D01*
X402984Y398102D01*
X402879Y398255D01*
X402782Y398413D01*
X402693Y398576D01*
X402613Y398744D01*
X402542Y398915D01*
X402481Y399090D01*
X402428Y399268D01*
X402385Y399448D01*
X402351Y399631D01*
X402326Y399815D01*
X402312Y400000D01*
X402307Y400185D01*
X402312Y400371D01*
X402326Y400555D01*
X402351Y400739D01*
X402385Y400922D01*
X402428Y401102D01*
X402481Y401280D01*
X402542Y401455D01*
X402613Y401626D01*
X402693Y401794D01*
X402782Y401957D01*
X402879Y402115D01*
X402984Y402268D01*
X403097Y402415D01*
X403217Y402556D01*
X403345Y402691D01*
X403479Y402818D01*
X403620Y402939D01*
X403768Y403052D01*
X403921Y403157D01*
X404079Y403254D01*
X404242Y403342D01*
X404409Y403422D01*
X404581Y403493D01*
X404755Y403555D01*
X404933Y403608D01*
X405114Y403651D01*
X405296Y403685D01*
X405480Y403709D01*
X405665Y403723D01*
X405850Y403728D01*
X415693D01*
Y396642D01*
D02*
G37*
G36*
X336036Y403723D02*
X336221Y403709D01*
X336405Y403685D01*
X336587Y403651D01*
X336768Y403608D01*
X336945Y403555D01*
X337120Y403493D01*
X337292Y403422D01*
X337459Y403342D01*
X337622Y403254D01*
X337780Y403157D01*
X337933Y403052D01*
X338080Y402939D01*
X338221Y402818D01*
X338356Y402691D01*
X338484Y402556D01*
X338604Y402415D01*
X338717Y402268D01*
X338822Y402115D01*
X338919Y401957D01*
X339007Y401794D01*
X339087Y401626D01*
X339158Y401455D01*
X339220Y401280D01*
X339273Y401102D01*
X339316Y400922D01*
X339350Y400739D01*
X339374Y400555D01*
X339389Y400371D01*
X339394Y400185D01*
X339389Y400000D01*
X339374Y399815D01*
X339350Y399631D01*
X339316Y399448D01*
X339273Y399268D01*
X339220Y399090D01*
X339158Y398915D01*
X339087Y398744D01*
X339007Y398576D01*
X338919Y398413D01*
X338822Y398255D01*
X338717Y398102D01*
X338604Y397955D01*
X338484Y397814D01*
X338356Y397679D01*
X338221Y397552D01*
X338080Y397431D01*
X337933Y397318D01*
X337780Y397213D01*
X337622Y397116D01*
X337459Y397028D01*
X337292Y396948D01*
X337120Y396877D01*
X336945Y396815D01*
X336768Y396762D01*
X336587Y396719D01*
X336405Y396685D01*
X336221Y396661D01*
X336036Y396647D01*
X335850Y396642D01*
X326008D01*
Y403728D01*
X335850D01*
X336036Y403723D01*
D02*
G37*
G36*
X415693Y386642D02*
X403488D01*
X403426Y386643D01*
X403365Y386648D01*
X403303Y386656D01*
X403243Y386667D01*
X403183Y386682D01*
X403123Y386700D01*
X403065Y386720D01*
X403008Y386744D01*
X402952Y386771D01*
X402898Y386800D01*
X402845Y386832D01*
X402794Y386867D01*
X402745Y386905D01*
X402698Y386945D01*
X402653Y386988D01*
X402610Y387033D01*
X402570Y387080D01*
X402533Y387129D01*
X402498Y387180D01*
X402465Y387232D01*
X402436Y387287D01*
X402409Y387342D01*
X402386Y387400D01*
X402365Y387458D01*
X402347Y387517D01*
X402333Y387577D01*
X402322Y387638D01*
X402314Y387699D01*
X402309Y387761D01*
X402307Y387823D01*
Y392547D01*
X402309Y392609D01*
X402314Y392671D01*
X402322Y392732D01*
X402333Y392793D01*
X402347Y392853D01*
X402365Y392912D01*
X402386Y392970D01*
X402409Y393028D01*
X402436Y393083D01*
X402465Y393138D01*
X402498Y393191D01*
X402533Y393242D01*
X402570Y393290D01*
X402610Y393338D01*
X402653Y393382D01*
X402698Y393425D01*
X402745Y393465D01*
X402794Y393503D01*
X402845Y393538D01*
X402898Y393570D01*
X402952Y393600D01*
X403008Y393626D01*
X403065Y393650D01*
X403123Y393671D01*
X403183Y393688D01*
X403243Y393703D01*
X403303Y393714D01*
X403365Y393722D01*
X403426Y393727D01*
X403488Y393728D01*
X415693D01*
Y386642D01*
D02*
G37*
G36*
X338274Y393727D02*
X338336Y393722D01*
X338397Y393714D01*
X338458Y393703D01*
X338518Y393688D01*
X338578Y393671D01*
X338636Y393650D01*
X338693Y393626D01*
X338749Y393600D01*
X338803Y393570D01*
X338856Y393538D01*
X338907Y393503D01*
X338956Y393465D01*
X339003Y393425D01*
X339048Y393382D01*
X339090Y393338D01*
X339130Y393290D01*
X339168Y393242D01*
X339203Y393191D01*
X339235Y393138D01*
X339265Y393083D01*
X339292Y393028D01*
X339315Y392970D01*
X339336Y392912D01*
X339353Y392853D01*
X339368Y392793D01*
X339379Y392732D01*
X339387Y392671D01*
X339392Y392609D01*
X339394Y392547D01*
Y387823D01*
X339392Y387761D01*
X339387Y387699D01*
X339379Y387638D01*
X339368Y387577D01*
X339353Y387517D01*
X339336Y387458D01*
X339315Y387400D01*
X339292Y387342D01*
X339265Y387287D01*
X339235Y387232D01*
X339203Y387180D01*
X339168Y387129D01*
X339130Y387080D01*
X339090Y387033D01*
X339048Y386988D01*
X339003Y386945D01*
X338956Y386905D01*
X338907Y386867D01*
X338856Y386832D01*
X338803Y386800D01*
X338749Y386771D01*
X338693Y386744D01*
X338636Y386720D01*
X338578Y386700D01*
X338518Y386682D01*
X338458Y386667D01*
X338397Y386656D01*
X338336Y386648D01*
X338274Y386643D01*
X338213Y386642D01*
X326008D01*
Y393728D01*
X338213D01*
X338274Y393727D01*
D02*
G37*
G36*
X415693Y376642D02*
X405850D01*
X405665Y376647D01*
X405480Y376661D01*
X405296Y376685D01*
X405114Y376719D01*
X404933Y376763D01*
X404755Y376815D01*
X404581Y376877D01*
X404409Y376948D01*
X404242Y377028D01*
X404079Y377116D01*
X403921Y377213D01*
X403768Y377318D01*
X403620Y377431D01*
X403479Y377552D01*
X403345Y377679D01*
X403217Y377814D01*
X403097Y377955D01*
X402984Y378102D01*
X402879Y378255D01*
X402782Y378413D01*
X402693Y378576D01*
X402613Y378744D01*
X402542Y378915D01*
X402481Y379090D01*
X402428Y379268D01*
X402385Y379448D01*
X402351Y379631D01*
X402326Y379815D01*
X402312Y380000D01*
X402307Y380185D01*
X402312Y380370D01*
X402326Y380555D01*
X402351Y380739D01*
X402385Y380922D01*
X402428Y381102D01*
X402481Y381280D01*
X402542Y381455D01*
X402613Y381626D01*
X402693Y381794D01*
X402782Y381957D01*
X402879Y382115D01*
X402984Y382268D01*
X403097Y382415D01*
X403217Y382556D01*
X403345Y382691D01*
X403479Y382818D01*
X403620Y382939D01*
X403768Y383052D01*
X403921Y383157D01*
X404079Y383254D01*
X404242Y383342D01*
X404409Y383422D01*
X404581Y383493D01*
X404755Y383555D01*
X404933Y383608D01*
X405114Y383651D01*
X405296Y383685D01*
X405480Y383709D01*
X405665Y383723D01*
X405850Y383728D01*
X415693D01*
Y376642D01*
D02*
G37*
G36*
X336036Y383723D02*
X336221Y383709D01*
X336405Y383685D01*
X336587Y383651D01*
X336768Y383608D01*
X336945Y383555D01*
X337120Y383493D01*
X337292Y383422D01*
X337459Y383342D01*
X337622Y383254D01*
X337780Y383157D01*
X337933Y383052D01*
X338080Y382939D01*
X338221Y382818D01*
X338356Y382691D01*
X338484Y382556D01*
X338604Y382415D01*
X338717Y382268D01*
X338822Y382115D01*
X338919Y381957D01*
X339007Y381794D01*
X339087Y381626D01*
X339158Y381455D01*
X339220Y381280D01*
X339273Y381102D01*
X339316Y380922D01*
X339350Y380739D01*
X339374Y380555D01*
X339389Y380370D01*
X339394Y380185D01*
X339389Y380000D01*
X339374Y379815D01*
X339350Y379631D01*
X339316Y379448D01*
X339273Y379268D01*
X339220Y379090D01*
X339158Y378915D01*
X339087Y378744D01*
X339007Y378576D01*
X338919Y378413D01*
X338822Y378255D01*
X338717Y378102D01*
X338604Y377955D01*
X338484Y377814D01*
X338356Y377679D01*
X338221Y377552D01*
X338080Y377431D01*
X337933Y377318D01*
X337780Y377213D01*
X337622Y377116D01*
X337459Y377028D01*
X337292Y376948D01*
X337120Y376877D01*
X336945Y376815D01*
X336768Y376763D01*
X336587Y376719D01*
X336405Y376685D01*
X336221Y376661D01*
X336036Y376647D01*
X335850Y376642D01*
X326008D01*
Y383728D01*
X335850D01*
X336036Y383723D01*
D02*
G37*
G36*
X415693Y366642D02*
X405850D01*
X405665Y366647D01*
X405480Y366661D01*
X405296Y366685D01*
X405114Y366719D01*
X404933Y366762D01*
X404755Y366815D01*
X404581Y366877D01*
X404409Y366948D01*
X404242Y367028D01*
X404079Y367116D01*
X403921Y367213D01*
X403768Y367318D01*
X403620Y367431D01*
X403479Y367552D01*
X403345Y367680D01*
X403217Y367814D01*
X403097Y367955D01*
X402984Y368102D01*
X402879Y368255D01*
X402782Y368413D01*
X402693Y368576D01*
X402613Y368744D01*
X402542Y368915D01*
X402481Y369090D01*
X402428Y369268D01*
X402385Y369448D01*
X402351Y369631D01*
X402326Y369815D01*
X402312Y370000D01*
X402307Y370185D01*
X402312Y370371D01*
X402326Y370555D01*
X402351Y370739D01*
X402385Y370922D01*
X402428Y371102D01*
X402481Y371280D01*
X402542Y371455D01*
X402613Y371626D01*
X402693Y371794D01*
X402782Y371957D01*
X402879Y372115D01*
X402984Y372268D01*
X403097Y372415D01*
X403217Y372556D01*
X403345Y372691D01*
X403479Y372818D01*
X403620Y372939D01*
X403768Y373052D01*
X403921Y373157D01*
X404079Y373254D01*
X404242Y373342D01*
X404409Y373422D01*
X404581Y373493D01*
X404755Y373555D01*
X404933Y373608D01*
X405114Y373651D01*
X405296Y373685D01*
X405480Y373709D01*
X405665Y373724D01*
X405850Y373728D01*
X415693D01*
Y366642D01*
D02*
G37*
G36*
X336036Y373724D02*
X336221Y373709D01*
X336405Y373685D01*
X336587Y373651D01*
X336768Y373608D01*
X336945Y373555D01*
X337120Y373493D01*
X337292Y373422D01*
X337459Y373342D01*
X337622Y373254D01*
X337780Y373157D01*
X337933Y373052D01*
X338080Y372939D01*
X338221Y372818D01*
X338356Y372691D01*
X338484Y372556D01*
X338604Y372415D01*
X338717Y372268D01*
X338822Y372115D01*
X338919Y371957D01*
X339007Y371794D01*
X339087Y371626D01*
X339158Y371455D01*
X339220Y371280D01*
X339273Y371102D01*
X339316Y370922D01*
X339350Y370739D01*
X339374Y370555D01*
X339389Y370371D01*
X339394Y370185D01*
X339389Y370000D01*
X339374Y369815D01*
X339350Y369631D01*
X339316Y369448D01*
X339273Y369268D01*
X339220Y369090D01*
X339158Y368915D01*
X339087Y368744D01*
X339007Y368576D01*
X338919Y368413D01*
X338822Y368255D01*
X338717Y368102D01*
X338604Y367955D01*
X338484Y367814D01*
X338356Y367680D01*
X338221Y367552D01*
X338080Y367431D01*
X337933Y367318D01*
X337780Y367213D01*
X337622Y367116D01*
X337459Y367028D01*
X337292Y366948D01*
X337120Y366877D01*
X336945Y366815D01*
X336768Y366762D01*
X336587Y366719D01*
X336405Y366685D01*
X336221Y366661D01*
X336036Y366647D01*
X335850Y366642D01*
X326008D01*
Y373728D01*
X335850D01*
X336036Y373724D01*
D02*
G37*
G36*
X381036Y374629D02*
X381221Y374614D01*
X381405Y374590D01*
X381587Y374556D01*
X381768Y374513D01*
X381945Y374460D01*
X382120Y374398D01*
X382292Y374327D01*
X382459Y374248D01*
X382622Y374159D01*
X382780Y374062D01*
X382933Y373957D01*
X383080Y373844D01*
X383221Y373724D01*
X383356Y373596D01*
X383484Y373462D01*
X383604Y373320D01*
X383717Y373173D01*
X383822Y373020D01*
X383919Y372862D01*
X384008Y372699D01*
X384087Y372532D01*
X384158Y372360D01*
X384220Y372185D01*
X384273Y372008D01*
X384316Y371827D01*
X384350Y371645D01*
X384374Y371461D01*
X384389Y371276D01*
X384394Y371091D01*
Y361248D01*
X377307D01*
Y371091D01*
X377312Y371276D01*
X377326Y371461D01*
X377351Y371645D01*
X377384Y371827D01*
X377428Y372008D01*
X377481Y372185D01*
X377542Y372360D01*
X377613Y372532D01*
X377693Y372699D01*
X377782Y372862D01*
X377879Y373020D01*
X377984Y373173D01*
X378097Y373320D01*
X378217Y373462D01*
X378345Y373596D01*
X378479Y373724D01*
X378621Y373844D01*
X378768Y373957D01*
X378921Y374062D01*
X379079Y374159D01*
X379242Y374248D01*
X379409Y374327D01*
X379581Y374398D01*
X379755Y374460D01*
X379933Y374513D01*
X380114Y374556D01*
X380296Y374590D01*
X380480Y374614D01*
X380665Y374629D01*
X380850Y374634D01*
X381036Y374629D01*
D02*
G37*
G36*
X373274Y374632D02*
X373336Y374627D01*
X373397Y374619D01*
X373458Y374608D01*
X373518Y374594D01*
X373578Y374576D01*
X373636Y374555D01*
X373693Y374532D01*
X373749Y374505D01*
X373803Y374476D01*
X373856Y374443D01*
X373907Y374408D01*
X373956Y374371D01*
X374003Y374330D01*
X374048Y374288D01*
X374090Y374243D01*
X374131Y374196D01*
X374168Y374147D01*
X374203Y374096D01*
X374236Y374043D01*
X374265Y373989D01*
X374292Y373933D01*
X374315Y373876D01*
X374336Y373818D01*
X374354Y373758D01*
X374368Y373698D01*
X374379Y373638D01*
X374387Y373576D01*
X374392Y373515D01*
X374394Y373453D01*
Y361248D01*
X367307D01*
Y373453D01*
X367309Y373515D01*
X367314Y373576D01*
X367322Y373638D01*
X367333Y373698D01*
X367347Y373758D01*
X367365Y373818D01*
X367386Y373876D01*
X367409Y373933D01*
X367436Y373989D01*
X367465Y374043D01*
X367498Y374096D01*
X367533Y374147D01*
X367570Y374196D01*
X367611Y374243D01*
X367653Y374288D01*
X367698Y374330D01*
X367745Y374371D01*
X367794Y374408D01*
X367845Y374443D01*
X367898Y374476D01*
X367952Y374505D01*
X368008Y374532D01*
X368065Y374555D01*
X368123Y374576D01*
X368182Y374594D01*
X368243Y374608D01*
X368303Y374619D01*
X368365Y374627D01*
X368426Y374632D01*
X368488Y374634D01*
X373213D01*
X373274Y374632D01*
D02*
G37*
G36*
X361036Y374629D02*
X361221Y374614D01*
X361405Y374590D01*
X361587Y374556D01*
X361768Y374513D01*
X361945Y374460D01*
X362120Y374398D01*
X362292Y374327D01*
X362459Y374248D01*
X362622Y374159D01*
X362780Y374062D01*
X362933Y373957D01*
X363080Y373844D01*
X363221Y373724D01*
X363356Y373596D01*
X363484Y373462D01*
X363604Y373320D01*
X363717Y373173D01*
X363822Y373020D01*
X363919Y372862D01*
X364007Y372699D01*
X364087Y372532D01*
X364158Y372360D01*
X364220Y372185D01*
X364273Y372008D01*
X364316Y371827D01*
X364350Y371645D01*
X364374Y371461D01*
X364389Y371276D01*
X364394Y371091D01*
Y361248D01*
X357307D01*
Y371091D01*
X357312Y371276D01*
X357327Y371461D01*
X357351Y371645D01*
X357384Y371827D01*
X357428Y372008D01*
X357481Y372185D01*
X357542Y372360D01*
X357613Y372532D01*
X357693Y372699D01*
X357782Y372862D01*
X357879Y373020D01*
X357984Y373173D01*
X358097Y373320D01*
X358217Y373462D01*
X358345Y373596D01*
X358479Y373724D01*
X358621Y373844D01*
X358768Y373957D01*
X358921Y374062D01*
X359079Y374159D01*
X359242Y374248D01*
X359409Y374327D01*
X359581Y374398D01*
X359755Y374460D01*
X359933Y374513D01*
X360114Y374556D01*
X360296Y374590D01*
X360480Y374614D01*
X360665Y374629D01*
X360850Y374634D01*
X361036Y374629D01*
D02*
G37*
G36*
X415693Y556642D02*
X405850D01*
X405665Y556647D01*
X405480Y556661D01*
X405296Y556685D01*
X405114Y556719D01*
X404933Y556763D01*
X404755Y556815D01*
X404581Y556877D01*
X404409Y556948D01*
X404242Y557028D01*
X404079Y557116D01*
X403921Y557213D01*
X403768Y557318D01*
X403620Y557431D01*
X403479Y557552D01*
X403345Y557680D01*
X403217Y557814D01*
X403097Y557955D01*
X402984Y558102D01*
X402879Y558255D01*
X402782Y558413D01*
X402693Y558576D01*
X402613Y558744D01*
X402542Y558915D01*
X402481Y559090D01*
X402428Y559268D01*
X402385Y559448D01*
X402351Y559631D01*
X402326Y559815D01*
X402312Y560000D01*
X402307Y560185D01*
X402312Y560370D01*
X402326Y560555D01*
X402351Y560739D01*
X402385Y560922D01*
X402428Y561102D01*
X402481Y561280D01*
X402542Y561455D01*
X402613Y561626D01*
X402693Y561794D01*
X402782Y561957D01*
X402879Y562115D01*
X402984Y562268D01*
X403097Y562415D01*
X403217Y562556D01*
X403345Y562690D01*
X403479Y562818D01*
X403620Y562939D01*
X403768Y563052D01*
X403921Y563157D01*
X404079Y563254D01*
X404242Y563342D01*
X404409Y563422D01*
X404581Y563493D01*
X404755Y563555D01*
X404933Y563608D01*
X405114Y563651D01*
X405296Y563685D01*
X405480Y563709D01*
X405665Y563724D01*
X405850Y563728D01*
X415693D01*
Y556642D01*
D02*
G37*
G36*
X336036Y563724D02*
X336221Y563709D01*
X336405Y563685D01*
X336587Y563651D01*
X336768Y563608D01*
X336945Y563555D01*
X337120Y563493D01*
X337292Y563422D01*
X337459Y563342D01*
X337622Y563254D01*
X337780Y563157D01*
X337933Y563052D01*
X338080Y562939D01*
X338221Y562818D01*
X338356Y562690D01*
X338484Y562556D01*
X338604Y562415D01*
X338717Y562268D01*
X338822Y562115D01*
X338919Y561957D01*
X339007Y561794D01*
X339087Y561626D01*
X339158Y561455D01*
X339220Y561280D01*
X339273Y561102D01*
X339316Y560922D01*
X339350Y560739D01*
X339374Y560555D01*
X339389Y560370D01*
X339394Y560185D01*
X339389Y560000D01*
X339374Y559815D01*
X339350Y559631D01*
X339316Y559448D01*
X339273Y559268D01*
X339220Y559090D01*
X339158Y558915D01*
X339087Y558744D01*
X339007Y558576D01*
X338919Y558413D01*
X338822Y558255D01*
X338717Y558102D01*
X338604Y557955D01*
X338484Y557814D01*
X338356Y557680D01*
X338221Y557552D01*
X338080Y557431D01*
X337933Y557318D01*
X337780Y557213D01*
X337622Y557116D01*
X337459Y557028D01*
X337292Y556948D01*
X337120Y556877D01*
X336945Y556815D01*
X336768Y556763D01*
X336587Y556719D01*
X336405Y556685D01*
X336221Y556661D01*
X336036Y556647D01*
X335850Y556642D01*
X326008D01*
Y563728D01*
X335850D01*
X336036Y563724D01*
D02*
G37*
G36*
X415693Y546642D02*
X405850D01*
X405665Y546647D01*
X405480Y546661D01*
X405296Y546685D01*
X405114Y546719D01*
X404933Y546763D01*
X404755Y546815D01*
X404581Y546877D01*
X404409Y546948D01*
X404242Y547028D01*
X404079Y547116D01*
X403921Y547213D01*
X403768Y547318D01*
X403620Y547431D01*
X403479Y547552D01*
X403345Y547680D01*
X403217Y547814D01*
X403097Y547955D01*
X402984Y548102D01*
X402879Y548255D01*
X402782Y548413D01*
X402693Y548576D01*
X402613Y548744D01*
X402542Y548915D01*
X402481Y549090D01*
X402428Y549268D01*
X402385Y549448D01*
X402351Y549631D01*
X402326Y549815D01*
X402312Y550000D01*
X402307Y550185D01*
X402312Y550371D01*
X402326Y550555D01*
X402351Y550739D01*
X402385Y550922D01*
X402428Y551102D01*
X402481Y551280D01*
X402542Y551455D01*
X402613Y551626D01*
X402693Y551794D01*
X402782Y551957D01*
X402879Y552115D01*
X402984Y552268D01*
X403097Y552415D01*
X403217Y552556D01*
X403345Y552691D01*
X403479Y552818D01*
X403620Y552939D01*
X403768Y553052D01*
X403921Y553157D01*
X404079Y553254D01*
X404242Y553342D01*
X404409Y553422D01*
X404581Y553493D01*
X404755Y553555D01*
X404933Y553608D01*
X405114Y553651D01*
X405296Y553685D01*
X405480Y553709D01*
X405665Y553723D01*
X405850Y553728D01*
X415693D01*
Y546642D01*
D02*
G37*
G36*
X336036Y553723D02*
X336221Y553709D01*
X336405Y553685D01*
X336587Y553651D01*
X336768Y553608D01*
X336945Y553555D01*
X337120Y553493D01*
X337292Y553422D01*
X337459Y553342D01*
X337622Y553254D01*
X337780Y553157D01*
X337933Y553052D01*
X338080Y552939D01*
X338221Y552818D01*
X338356Y552691D01*
X338484Y552556D01*
X338604Y552415D01*
X338717Y552268D01*
X338822Y552115D01*
X338919Y551957D01*
X339007Y551794D01*
X339087Y551626D01*
X339158Y551455D01*
X339220Y551280D01*
X339273Y551102D01*
X339316Y550922D01*
X339350Y550739D01*
X339374Y550555D01*
X339389Y550371D01*
X339394Y550185D01*
X339389Y550000D01*
X339374Y549815D01*
X339350Y549631D01*
X339316Y549448D01*
X339273Y549268D01*
X339220Y549090D01*
X339158Y548915D01*
X339087Y548744D01*
X339007Y548576D01*
X338919Y548413D01*
X338822Y548255D01*
X338717Y548102D01*
X338604Y547955D01*
X338484Y547814D01*
X338356Y547680D01*
X338221Y547552D01*
X338080Y547431D01*
X337933Y547318D01*
X337780Y547213D01*
X337622Y547116D01*
X337459Y547028D01*
X337292Y546948D01*
X337120Y546877D01*
X336945Y546815D01*
X336768Y546763D01*
X336587Y546719D01*
X336405Y546685D01*
X336221Y546661D01*
X336036Y546647D01*
X335850Y546642D01*
X326008D01*
Y553728D01*
X335850D01*
X336036Y553723D01*
D02*
G37*
G36*
X415693Y536642D02*
X403488D01*
X403426Y536643D01*
X403365Y536648D01*
X403303Y536656D01*
X403243Y536667D01*
X403183Y536682D01*
X403123Y536699D01*
X403065Y536720D01*
X403008Y536744D01*
X402952Y536770D01*
X402898Y536800D01*
X402845Y536832D01*
X402794Y536867D01*
X402745Y536905D01*
X402698Y536945D01*
X402653Y536988D01*
X402610Y537033D01*
X402570Y537079D01*
X402533Y537129D01*
X402498Y537180D01*
X402465Y537232D01*
X402436Y537287D01*
X402409Y537342D01*
X402386Y537400D01*
X402365Y537458D01*
X402347Y537517D01*
X402333Y537577D01*
X402322Y537638D01*
X402314Y537699D01*
X402309Y537761D01*
X402307Y537823D01*
Y542547D01*
X402309Y542609D01*
X402314Y542671D01*
X402322Y542732D01*
X402333Y542793D01*
X402347Y542853D01*
X402365Y542912D01*
X402386Y542971D01*
X402409Y543028D01*
X402436Y543083D01*
X402465Y543138D01*
X402498Y543190D01*
X402533Y543242D01*
X402570Y543291D01*
X402610Y543338D01*
X402653Y543382D01*
X402698Y543425D01*
X402745Y543465D01*
X402794Y543503D01*
X402845Y543538D01*
X402898Y543570D01*
X402952Y543600D01*
X403008Y543626D01*
X403065Y543650D01*
X403123Y543671D01*
X403183Y543688D01*
X403243Y543703D01*
X403303Y543714D01*
X403365Y543722D01*
X403426Y543727D01*
X403488Y543728D01*
X415693D01*
Y536642D01*
D02*
G37*
G36*
X338274Y543727D02*
X338336Y543722D01*
X338397Y543714D01*
X338458Y543703D01*
X338518Y543688D01*
X338578Y543671D01*
X338636Y543650D01*
X338693Y543626D01*
X338749Y543600D01*
X338803Y543570D01*
X338856Y543538D01*
X338907Y543503D01*
X338956Y543465D01*
X339003Y543425D01*
X339048Y543382D01*
X339090Y543338D01*
X339130Y543291D01*
X339168Y543242D01*
X339203Y543190D01*
X339235Y543138D01*
X339265Y543083D01*
X339292Y543028D01*
X339315Y542971D01*
X339336Y542912D01*
X339353Y542853D01*
X339368Y542793D01*
X339379Y542732D01*
X339387Y542671D01*
X339392Y542609D01*
X339394Y542547D01*
Y537823D01*
X339392Y537761D01*
X339387Y537699D01*
X339379Y537638D01*
X339368Y537577D01*
X339353Y537517D01*
X339336Y537458D01*
X339315Y537400D01*
X339292Y537342D01*
X339265Y537287D01*
X339235Y537232D01*
X339203Y537180D01*
X339168Y537129D01*
X339130Y537079D01*
X339090Y537033D01*
X339048Y536988D01*
X339003Y536945D01*
X338956Y536905D01*
X338907Y536867D01*
X338856Y536832D01*
X338803Y536800D01*
X338749Y536770D01*
X338693Y536744D01*
X338636Y536720D01*
X338578Y536699D01*
X338518Y536682D01*
X338458Y536667D01*
X338397Y536656D01*
X338336Y536648D01*
X338274Y536643D01*
X338213Y536642D01*
X326008D01*
Y543728D01*
X338213D01*
X338274Y543727D01*
D02*
G37*
G36*
X415693Y526642D02*
X405850D01*
X405665Y526647D01*
X405480Y526661D01*
X405296Y526685D01*
X405114Y526719D01*
X404933Y526762D01*
X404755Y526815D01*
X404581Y526877D01*
X404409Y526948D01*
X404242Y527028D01*
X404079Y527116D01*
X403921Y527213D01*
X403768Y527318D01*
X403620Y527431D01*
X403479Y527552D01*
X403345Y527679D01*
X403217Y527814D01*
X403097Y527955D01*
X402984Y528102D01*
X402879Y528255D01*
X402782Y528413D01*
X402693Y528576D01*
X402613Y528744D01*
X402542Y528915D01*
X402481Y529090D01*
X402428Y529268D01*
X402385Y529448D01*
X402351Y529631D01*
X402326Y529815D01*
X402312Y530000D01*
X402307Y530185D01*
X402312Y530371D01*
X402326Y530555D01*
X402351Y530739D01*
X402385Y530922D01*
X402428Y531102D01*
X402481Y531280D01*
X402542Y531455D01*
X402613Y531626D01*
X402693Y531794D01*
X402782Y531957D01*
X402879Y532115D01*
X402984Y532268D01*
X403097Y532415D01*
X403217Y532556D01*
X403345Y532690D01*
X403479Y532818D01*
X403620Y532939D01*
X403768Y533052D01*
X403921Y533157D01*
X404079Y533254D01*
X404242Y533342D01*
X404409Y533422D01*
X404581Y533493D01*
X404755Y533555D01*
X404933Y533608D01*
X405114Y533651D01*
X405296Y533685D01*
X405480Y533709D01*
X405665Y533723D01*
X405850Y533728D01*
X415693D01*
Y526642D01*
D02*
G37*
G36*
X336036Y533723D02*
X336221Y533709D01*
X336405Y533685D01*
X336587Y533651D01*
X336768Y533608D01*
X336945Y533555D01*
X337120Y533493D01*
X337292Y533422D01*
X337459Y533342D01*
X337622Y533254D01*
X337780Y533157D01*
X337933Y533052D01*
X338080Y532939D01*
X338221Y532818D01*
X338356Y532690D01*
X338484Y532556D01*
X338604Y532415D01*
X338717Y532268D01*
X338822Y532115D01*
X338919Y531957D01*
X339007Y531794D01*
X339087Y531626D01*
X339158Y531455D01*
X339220Y531280D01*
X339273Y531102D01*
X339316Y530922D01*
X339350Y530739D01*
X339374Y530555D01*
X339389Y530371D01*
X339394Y530185D01*
X339389Y530000D01*
X339374Y529815D01*
X339350Y529631D01*
X339316Y529448D01*
X339273Y529268D01*
X339220Y529090D01*
X339158Y528915D01*
X339087Y528744D01*
X339007Y528576D01*
X338919Y528413D01*
X338822Y528255D01*
X338717Y528102D01*
X338604Y527955D01*
X338484Y527814D01*
X338356Y527679D01*
X338221Y527552D01*
X338080Y527431D01*
X337933Y527318D01*
X337780Y527213D01*
X337622Y527116D01*
X337459Y527028D01*
X337292Y526948D01*
X337120Y526877D01*
X336945Y526815D01*
X336768Y526762D01*
X336587Y526719D01*
X336405Y526685D01*
X336221Y526661D01*
X336036Y526647D01*
X335850Y526642D01*
X326008D01*
Y533728D01*
X335850D01*
X336036Y533723D01*
D02*
G37*
G36*
X415693Y516642D02*
X405850D01*
X405665Y516647D01*
X405480Y516661D01*
X405296Y516685D01*
X405114Y516719D01*
X404933Y516762D01*
X404755Y516815D01*
X404581Y516877D01*
X404409Y516948D01*
X404242Y517028D01*
X404079Y517116D01*
X403921Y517213D01*
X403768Y517318D01*
X403620Y517431D01*
X403479Y517552D01*
X403345Y517680D01*
X403217Y517814D01*
X403097Y517955D01*
X402984Y518102D01*
X402879Y518255D01*
X402782Y518413D01*
X402693Y518576D01*
X402613Y518744D01*
X402542Y518915D01*
X402481Y519090D01*
X402428Y519268D01*
X402385Y519448D01*
X402351Y519631D01*
X402326Y519815D01*
X402312Y520000D01*
X402307Y520185D01*
X402312Y520370D01*
X402326Y520555D01*
X402351Y520739D01*
X402385Y520922D01*
X402428Y521102D01*
X402481Y521280D01*
X402542Y521455D01*
X402613Y521626D01*
X402693Y521794D01*
X402782Y521957D01*
X402879Y522115D01*
X402984Y522268D01*
X403097Y522415D01*
X403217Y522556D01*
X403345Y522690D01*
X403479Y522818D01*
X403620Y522939D01*
X403768Y523052D01*
X403921Y523157D01*
X404079Y523254D01*
X404242Y523342D01*
X404409Y523422D01*
X404581Y523493D01*
X404755Y523555D01*
X404933Y523608D01*
X405114Y523651D01*
X405296Y523685D01*
X405480Y523709D01*
X405665Y523724D01*
X405850Y523728D01*
X415693D01*
Y516642D01*
D02*
G37*
G36*
X336036Y523724D02*
X336221Y523709D01*
X336405Y523685D01*
X336587Y523651D01*
X336768Y523608D01*
X336945Y523555D01*
X337120Y523493D01*
X337292Y523422D01*
X337459Y523342D01*
X337622Y523254D01*
X337780Y523157D01*
X337933Y523052D01*
X338080Y522939D01*
X338221Y522818D01*
X338356Y522690D01*
X338484Y522556D01*
X338604Y522415D01*
X338717Y522268D01*
X338822Y522115D01*
X338919Y521957D01*
X339007Y521794D01*
X339087Y521626D01*
X339158Y521455D01*
X339220Y521280D01*
X339273Y521102D01*
X339316Y520922D01*
X339350Y520739D01*
X339374Y520555D01*
X339389Y520370D01*
X339394Y520185D01*
X339389Y520000D01*
X339374Y519815D01*
X339350Y519631D01*
X339316Y519448D01*
X339273Y519268D01*
X339220Y519090D01*
X339158Y518915D01*
X339087Y518744D01*
X339007Y518576D01*
X338919Y518413D01*
X338822Y518255D01*
X338717Y518102D01*
X338604Y517955D01*
X338484Y517814D01*
X338356Y517680D01*
X338221Y517552D01*
X338080Y517431D01*
X337933Y517318D01*
X337780Y517213D01*
X337622Y517116D01*
X337459Y517028D01*
X337292Y516948D01*
X337120Y516877D01*
X336945Y516815D01*
X336768Y516762D01*
X336587Y516719D01*
X336405Y516685D01*
X336221Y516661D01*
X336036Y516647D01*
X335850Y516642D01*
X326008D01*
Y523728D01*
X335850D01*
X336036Y523724D01*
D02*
G37*
G36*
X415693Y506642D02*
X405850D01*
X405665Y506647D01*
X405480Y506661D01*
X405296Y506685D01*
X405114Y506719D01*
X404933Y506763D01*
X404755Y506815D01*
X404581Y506877D01*
X404409Y506948D01*
X404242Y507028D01*
X404079Y507116D01*
X403921Y507213D01*
X403768Y507318D01*
X403620Y507431D01*
X403479Y507552D01*
X403345Y507680D01*
X403217Y507814D01*
X403097Y507955D01*
X402984Y508102D01*
X402879Y508255D01*
X402782Y508413D01*
X402693Y508576D01*
X402613Y508744D01*
X402542Y508915D01*
X402481Y509090D01*
X402428Y509268D01*
X402385Y509448D01*
X402351Y509631D01*
X402326Y509815D01*
X402312Y510000D01*
X402307Y510185D01*
X402312Y510370D01*
X402326Y510555D01*
X402351Y510739D01*
X402385Y510922D01*
X402428Y511102D01*
X402481Y511280D01*
X402542Y511455D01*
X402613Y511626D01*
X402693Y511794D01*
X402782Y511957D01*
X402879Y512115D01*
X402984Y512268D01*
X403097Y512415D01*
X403217Y512556D01*
X403345Y512690D01*
X403479Y512818D01*
X403620Y512939D01*
X403768Y513052D01*
X403921Y513157D01*
X404079Y513254D01*
X404242Y513342D01*
X404409Y513422D01*
X404581Y513493D01*
X404755Y513555D01*
X404933Y513608D01*
X405114Y513651D01*
X405296Y513685D01*
X405480Y513709D01*
X405665Y513724D01*
X405850Y513728D01*
X415693D01*
Y506642D01*
D02*
G37*
G36*
X336036Y513724D02*
X336221Y513709D01*
X336405Y513685D01*
X336587Y513651D01*
X336768Y513608D01*
X336945Y513555D01*
X337120Y513493D01*
X337292Y513422D01*
X337459Y513342D01*
X337622Y513254D01*
X337780Y513157D01*
X337933Y513052D01*
X338080Y512939D01*
X338221Y512818D01*
X338356Y512690D01*
X338484Y512556D01*
X338604Y512415D01*
X338717Y512268D01*
X338822Y512115D01*
X338919Y511957D01*
X339007Y511794D01*
X339087Y511626D01*
X339158Y511455D01*
X339220Y511280D01*
X339273Y511102D01*
X339316Y510922D01*
X339350Y510739D01*
X339374Y510555D01*
X339389Y510370D01*
X339394Y510185D01*
X339389Y510000D01*
X339374Y509815D01*
X339350Y509631D01*
X339316Y509448D01*
X339273Y509268D01*
X339220Y509090D01*
X339158Y508915D01*
X339087Y508744D01*
X339007Y508576D01*
X338919Y508413D01*
X338822Y508255D01*
X338717Y508102D01*
X338604Y507955D01*
X338484Y507814D01*
X338356Y507680D01*
X338221Y507552D01*
X338080Y507431D01*
X337933Y507318D01*
X337780Y507213D01*
X337622Y507116D01*
X337459Y507028D01*
X337292Y506948D01*
X337120Y506877D01*
X336945Y506815D01*
X336768Y506763D01*
X336587Y506719D01*
X336405Y506685D01*
X336221Y506661D01*
X336036Y506647D01*
X335850Y506642D01*
X326008D01*
Y513728D01*
X335850D01*
X336036Y513724D01*
D02*
G37*
G36*
X415693Y496642D02*
X405850D01*
X405665Y496647D01*
X405480Y496661D01*
X405296Y496685D01*
X405114Y496719D01*
X404933Y496763D01*
X404755Y496815D01*
X404581Y496877D01*
X404409Y496948D01*
X404242Y497028D01*
X404079Y497116D01*
X403921Y497213D01*
X403768Y497318D01*
X403620Y497431D01*
X403479Y497552D01*
X403345Y497680D01*
X403217Y497814D01*
X403097Y497955D01*
X402984Y498102D01*
X402879Y498255D01*
X402782Y498413D01*
X402693Y498576D01*
X402613Y498744D01*
X402542Y498915D01*
X402481Y499090D01*
X402428Y499268D01*
X402385Y499448D01*
X402351Y499631D01*
X402326Y499815D01*
X402312Y500000D01*
X402307Y500185D01*
X402312Y500371D01*
X402326Y500555D01*
X402351Y500739D01*
X402385Y500922D01*
X402428Y501102D01*
X402481Y501280D01*
X402542Y501455D01*
X402613Y501626D01*
X402693Y501794D01*
X402782Y501957D01*
X402879Y502115D01*
X402984Y502268D01*
X403097Y502415D01*
X403217Y502556D01*
X403345Y502691D01*
X403479Y502818D01*
X403620Y502939D01*
X403768Y503052D01*
X403921Y503157D01*
X404079Y503254D01*
X404242Y503342D01*
X404409Y503422D01*
X404581Y503493D01*
X404755Y503555D01*
X404933Y503608D01*
X405114Y503651D01*
X405296Y503685D01*
X405480Y503709D01*
X405665Y503723D01*
X405850Y503728D01*
X415693D01*
Y496642D01*
D02*
G37*
G36*
X336036Y503723D02*
X336221Y503709D01*
X336405Y503685D01*
X336587Y503651D01*
X336768Y503608D01*
X336945Y503555D01*
X337120Y503493D01*
X337292Y503422D01*
X337459Y503342D01*
X337622Y503254D01*
X337780Y503157D01*
X337933Y503052D01*
X338080Y502939D01*
X338221Y502818D01*
X338356Y502691D01*
X338484Y502556D01*
X338604Y502415D01*
X338717Y502268D01*
X338822Y502115D01*
X338919Y501957D01*
X339007Y501794D01*
X339087Y501626D01*
X339158Y501455D01*
X339220Y501280D01*
X339273Y501102D01*
X339316Y500922D01*
X339350Y500739D01*
X339374Y500555D01*
X339389Y500371D01*
X339394Y500185D01*
X339389Y500000D01*
X339374Y499815D01*
X339350Y499631D01*
X339316Y499448D01*
X339273Y499268D01*
X339220Y499090D01*
X339158Y498915D01*
X339087Y498744D01*
X339007Y498576D01*
X338919Y498413D01*
X338822Y498255D01*
X338717Y498102D01*
X338604Y497955D01*
X338484Y497814D01*
X338356Y497680D01*
X338221Y497552D01*
X338080Y497431D01*
X337933Y497318D01*
X337780Y497213D01*
X337622Y497116D01*
X337459Y497028D01*
X337292Y496948D01*
X337120Y496877D01*
X336945Y496815D01*
X336768Y496763D01*
X336587Y496719D01*
X336405Y496685D01*
X336221Y496661D01*
X336036Y496647D01*
X335850Y496642D01*
X326008D01*
Y503728D01*
X335850D01*
X336036Y503723D01*
D02*
G37*
G36*
X415693Y486642D02*
X403488D01*
X403426Y486643D01*
X403365Y486648D01*
X403303Y486656D01*
X403243Y486667D01*
X403183Y486682D01*
X403123Y486699D01*
X403065Y486720D01*
X403008Y486744D01*
X402952Y486770D01*
X402898Y486800D01*
X402845Y486832D01*
X402794Y486867D01*
X402745Y486905D01*
X402698Y486945D01*
X402653Y486988D01*
X402610Y487033D01*
X402570Y487079D01*
X402533Y487129D01*
X402498Y487180D01*
X402465Y487232D01*
X402436Y487287D01*
X402409Y487342D01*
X402386Y487400D01*
X402365Y487458D01*
X402347Y487517D01*
X402333Y487577D01*
X402322Y487638D01*
X402314Y487699D01*
X402309Y487761D01*
X402307Y487823D01*
Y492547D01*
X402309Y492609D01*
X402314Y492671D01*
X402322Y492732D01*
X402333Y492793D01*
X402347Y492853D01*
X402365Y492912D01*
X402386Y492971D01*
X402409Y493028D01*
X402436Y493083D01*
X402465Y493138D01*
X402498Y493190D01*
X402533Y493242D01*
X402570Y493291D01*
X402610Y493338D01*
X402653Y493382D01*
X402698Y493425D01*
X402745Y493465D01*
X402794Y493503D01*
X402845Y493538D01*
X402898Y493570D01*
X402952Y493600D01*
X403008Y493626D01*
X403065Y493650D01*
X403123Y493671D01*
X403183Y493688D01*
X403243Y493703D01*
X403303Y493714D01*
X403365Y493722D01*
X403426Y493727D01*
X403488Y493728D01*
X415693D01*
Y486642D01*
D02*
G37*
G36*
X338274Y493727D02*
X338336Y493722D01*
X338397Y493714D01*
X338458Y493703D01*
X338518Y493688D01*
X338578Y493671D01*
X338636Y493650D01*
X338693Y493626D01*
X338749Y493600D01*
X338803Y493570D01*
X338856Y493538D01*
X338907Y493503D01*
X338956Y493465D01*
X339003Y493425D01*
X339048Y493382D01*
X339090Y493338D01*
X339130Y493291D01*
X339168Y493242D01*
X339203Y493190D01*
X339235Y493138D01*
X339265Y493083D01*
X339292Y493028D01*
X339315Y492971D01*
X339336Y492912D01*
X339353Y492853D01*
X339368Y492793D01*
X339379Y492732D01*
X339387Y492671D01*
X339392Y492609D01*
X339394Y492547D01*
Y487823D01*
X339392Y487761D01*
X339387Y487699D01*
X339379Y487638D01*
X339368Y487577D01*
X339353Y487517D01*
X339336Y487458D01*
X339315Y487400D01*
X339292Y487342D01*
X339265Y487287D01*
X339235Y487232D01*
X339203Y487180D01*
X339168Y487129D01*
X339130Y487079D01*
X339090Y487033D01*
X339048Y486988D01*
X339003Y486945D01*
X338956Y486905D01*
X338907Y486867D01*
X338856Y486832D01*
X338803Y486800D01*
X338749Y486770D01*
X338693Y486744D01*
X338636Y486720D01*
X338578Y486699D01*
X338518Y486682D01*
X338458Y486667D01*
X338397Y486656D01*
X338336Y486648D01*
X338274Y486643D01*
X338213Y486642D01*
X326008D01*
Y493728D01*
X338213D01*
X338274Y493727D01*
D02*
G37*
G36*
X415693Y476642D02*
X405850D01*
X405665Y476647D01*
X405480Y476661D01*
X405296Y476685D01*
X405114Y476719D01*
X404933Y476762D01*
X404755Y476815D01*
X404581Y476877D01*
X404409Y476948D01*
X404242Y477028D01*
X404079Y477116D01*
X403921Y477213D01*
X403768Y477318D01*
X403620Y477431D01*
X403479Y477552D01*
X403345Y477679D01*
X403217Y477814D01*
X403097Y477955D01*
X402984Y478102D01*
X402879Y478255D01*
X402782Y478413D01*
X402693Y478576D01*
X402613Y478744D01*
X402542Y478915D01*
X402481Y479090D01*
X402428Y479268D01*
X402385Y479448D01*
X402351Y479631D01*
X402326Y479815D01*
X402312Y480000D01*
X402307Y480185D01*
X402312Y480371D01*
X402326Y480555D01*
X402351Y480739D01*
X402385Y480922D01*
X402428Y481102D01*
X402481Y481280D01*
X402542Y481455D01*
X402613Y481626D01*
X402693Y481794D01*
X402782Y481957D01*
X402879Y482115D01*
X402984Y482268D01*
X403097Y482415D01*
X403217Y482556D01*
X403345Y482690D01*
X403479Y482818D01*
X403620Y482939D01*
X403768Y483052D01*
X403921Y483157D01*
X404079Y483254D01*
X404242Y483342D01*
X404409Y483422D01*
X404581Y483493D01*
X404755Y483555D01*
X404933Y483608D01*
X405114Y483651D01*
X405296Y483685D01*
X405480Y483709D01*
X405665Y483723D01*
X405850Y483728D01*
X415693D01*
Y476642D01*
D02*
G37*
G36*
X336036Y483723D02*
X336221Y483709D01*
X336405Y483685D01*
X336587Y483651D01*
X336768Y483608D01*
X336945Y483555D01*
X337120Y483493D01*
X337292Y483422D01*
X337459Y483342D01*
X337622Y483254D01*
X337780Y483157D01*
X337933Y483052D01*
X338080Y482939D01*
X338221Y482818D01*
X338356Y482690D01*
X338484Y482556D01*
X338604Y482415D01*
X338717Y482268D01*
X338822Y482115D01*
X338919Y481957D01*
X339007Y481794D01*
X339087Y481626D01*
X339158Y481455D01*
X339220Y481280D01*
X339273Y481102D01*
X339316Y480922D01*
X339350Y480739D01*
X339374Y480555D01*
X339389Y480371D01*
X339394Y480185D01*
X339389Y480000D01*
X339374Y479815D01*
X339350Y479631D01*
X339316Y479448D01*
X339273Y479268D01*
X339220Y479090D01*
X339158Y478915D01*
X339087Y478744D01*
X339007Y478576D01*
X338919Y478413D01*
X338822Y478255D01*
X338717Y478102D01*
X338604Y477955D01*
X338484Y477814D01*
X338356Y477679D01*
X338221Y477552D01*
X338080Y477431D01*
X337933Y477318D01*
X337780Y477213D01*
X337622Y477116D01*
X337459Y477028D01*
X337292Y476948D01*
X337120Y476877D01*
X336945Y476815D01*
X336768Y476762D01*
X336587Y476719D01*
X336405Y476685D01*
X336221Y476661D01*
X336036Y476647D01*
X335850Y476642D01*
X326008D01*
Y483728D01*
X335850D01*
X336036Y483723D01*
D02*
G37*
G36*
X415693Y466642D02*
X405850D01*
X405665Y466647D01*
X405480Y466661D01*
X405296Y466685D01*
X405114Y466719D01*
X404933Y466762D01*
X404755Y466815D01*
X404581Y466877D01*
X404409Y466948D01*
X404242Y467028D01*
X404079Y467116D01*
X403921Y467213D01*
X403768Y467318D01*
X403620Y467431D01*
X403479Y467552D01*
X403345Y467680D01*
X403217Y467814D01*
X403097Y467955D01*
X402984Y468102D01*
X402879Y468255D01*
X402782Y468413D01*
X402693Y468576D01*
X402613Y468744D01*
X402542Y468915D01*
X402481Y469090D01*
X402428Y469268D01*
X402385Y469448D01*
X402351Y469631D01*
X402326Y469815D01*
X402312Y470000D01*
X402307Y470185D01*
X402312Y470370D01*
X402326Y470555D01*
X402351Y470739D01*
X402385Y470922D01*
X402428Y471102D01*
X402481Y471280D01*
X402542Y471455D01*
X402613Y471626D01*
X402693Y471794D01*
X402782Y471957D01*
X402879Y472115D01*
X402984Y472268D01*
X403097Y472415D01*
X403217Y472556D01*
X403345Y472690D01*
X403479Y472818D01*
X403620Y472939D01*
X403768Y473052D01*
X403921Y473157D01*
X404079Y473254D01*
X404242Y473342D01*
X404409Y473422D01*
X404581Y473493D01*
X404755Y473555D01*
X404933Y473608D01*
X405114Y473651D01*
X405296Y473685D01*
X405480Y473709D01*
X405665Y473724D01*
X405850Y473728D01*
X415693D01*
Y466642D01*
D02*
G37*
G36*
X336036Y473724D02*
X336221Y473709D01*
X336405Y473685D01*
X336587Y473651D01*
X336768Y473608D01*
X336945Y473555D01*
X337120Y473493D01*
X337292Y473422D01*
X337459Y473342D01*
X337622Y473254D01*
X337780Y473157D01*
X337933Y473052D01*
X338080Y472939D01*
X338221Y472818D01*
X338356Y472690D01*
X338484Y472556D01*
X338604Y472415D01*
X338717Y472268D01*
X338822Y472115D01*
X338919Y471957D01*
X339007Y471794D01*
X339087Y471626D01*
X339158Y471455D01*
X339220Y471280D01*
X339273Y471102D01*
X339316Y470922D01*
X339350Y470739D01*
X339374Y470555D01*
X339389Y470370D01*
X339394Y470185D01*
X339389Y470000D01*
X339374Y469815D01*
X339350Y469631D01*
X339316Y469448D01*
X339273Y469268D01*
X339220Y469090D01*
X339158Y468915D01*
X339087Y468744D01*
X339007Y468576D01*
X338919Y468413D01*
X338822Y468255D01*
X338717Y468102D01*
X338604Y467955D01*
X338484Y467814D01*
X338356Y467680D01*
X338221Y467552D01*
X338080Y467431D01*
X337933Y467318D01*
X337780Y467213D01*
X337622Y467116D01*
X337459Y467028D01*
X337292Y466948D01*
X337120Y466877D01*
X336945Y466815D01*
X336768Y466762D01*
X336587Y466719D01*
X336405Y466685D01*
X336221Y466661D01*
X336036Y466647D01*
X335850Y466642D01*
X326008D01*
Y473728D01*
X335850D01*
X336036Y473724D01*
D02*
G37*
G36*
X415693Y456642D02*
X405850D01*
X405665Y456647D01*
X405480Y456661D01*
X405296Y456685D01*
X405114Y456719D01*
X404933Y456763D01*
X404755Y456815D01*
X404581Y456877D01*
X404409Y456948D01*
X404242Y457028D01*
X404079Y457116D01*
X403921Y457213D01*
X403768Y457318D01*
X403620Y457431D01*
X403479Y457552D01*
X403345Y457680D01*
X403217Y457814D01*
X403097Y457955D01*
X402984Y458102D01*
X402879Y458255D01*
X402782Y458413D01*
X402693Y458576D01*
X402613Y458744D01*
X402542Y458915D01*
X402481Y459090D01*
X402428Y459268D01*
X402385Y459448D01*
X402351Y459631D01*
X402326Y459815D01*
X402312Y460000D01*
X402307Y460185D01*
X402312Y460370D01*
X402326Y460555D01*
X402351Y460739D01*
X402385Y460922D01*
X402428Y461102D01*
X402481Y461280D01*
X402542Y461455D01*
X402613Y461626D01*
X402693Y461794D01*
X402782Y461957D01*
X402879Y462115D01*
X402984Y462268D01*
X403097Y462415D01*
X403217Y462556D01*
X403345Y462690D01*
X403479Y462818D01*
X403620Y462939D01*
X403768Y463052D01*
X403921Y463157D01*
X404079Y463254D01*
X404242Y463342D01*
X404409Y463422D01*
X404581Y463493D01*
X404755Y463555D01*
X404933Y463608D01*
X405114Y463651D01*
X405296Y463685D01*
X405480Y463709D01*
X405665Y463724D01*
X405850Y463728D01*
X415693D01*
Y456642D01*
D02*
G37*
G36*
X336036Y463724D02*
X336221Y463709D01*
X336405Y463685D01*
X336587Y463651D01*
X336768Y463608D01*
X336945Y463555D01*
X337120Y463493D01*
X337292Y463422D01*
X337459Y463342D01*
X337622Y463254D01*
X337780Y463157D01*
X337933Y463052D01*
X338080Y462939D01*
X338221Y462818D01*
X338356Y462690D01*
X338484Y462556D01*
X338604Y462415D01*
X338717Y462268D01*
X338822Y462115D01*
X338919Y461957D01*
X339007Y461794D01*
X339087Y461626D01*
X339158Y461455D01*
X339220Y461280D01*
X339273Y461102D01*
X339316Y460922D01*
X339350Y460739D01*
X339374Y460555D01*
X339389Y460370D01*
X339394Y460185D01*
X339389Y460000D01*
X339374Y459815D01*
X339350Y459631D01*
X339316Y459448D01*
X339273Y459268D01*
X339220Y459090D01*
X339158Y458915D01*
X339087Y458744D01*
X339007Y458576D01*
X338919Y458413D01*
X338822Y458255D01*
X338717Y458102D01*
X338604Y457955D01*
X338484Y457814D01*
X338356Y457680D01*
X338221Y457552D01*
X338080Y457431D01*
X337933Y457318D01*
X337780Y457213D01*
X337622Y457116D01*
X337459Y457028D01*
X337292Y456948D01*
X337120Y456877D01*
X336945Y456815D01*
X336768Y456763D01*
X336587Y456719D01*
X336405Y456685D01*
X336221Y456661D01*
X336036Y456647D01*
X335850Y456642D01*
X326008D01*
Y463728D01*
X335850D01*
X336036Y463724D01*
D02*
G37*
D49*
X435236Y558071D02*
D03*
X423032D02*
D03*
D50*
X380398Y547744D02*
D03*
X361303D02*
D03*
D51*
X381579Y559673D02*
D03*
X360122D02*
D03*
D52*
X361008Y514398D02*
D03*
Y524240D02*
D03*
Y534083D02*
D03*
X370850Y547862D02*
D03*
X374787Y560854D02*
D03*
X366913D02*
D03*
D53*
X373700Y125100D02*
D03*
D54*
X356446D02*
D03*
X390954D02*
D03*
D55*
X384449Y233268D02*
D03*
X400984D02*
D03*
D56*
X316535Y401575D02*
D03*
Y424409D02*
D03*
X300787D02*
D03*
Y401575D02*
D03*
X440945Y488583D02*
D03*
Y511417D02*
D03*
X425197D02*
D03*
Y488583D02*
D03*
X349926Y215783D02*
D03*
Y238617D02*
D03*
X365674D02*
D03*
Y215783D02*
D03*
D57*
X307283Y463779D02*
D03*
X300591D02*
D03*
X321457Y470079D02*
D03*
X314764D02*
D03*
X342547Y297600D02*
D03*
X335854D02*
D03*
X408858Y265748D02*
D03*
X402165D02*
D03*
X375197Y322835D02*
D03*
X381890D02*
D03*
D58*
X304134Y449213D02*
D03*
Y455905D02*
D03*
X313976Y449213D02*
D03*
Y455905D02*
D03*
X430118Y449213D02*
D03*
Y442520D02*
D03*
D59*
Y465158D02*
D03*
Y471850D02*
D03*
X338000Y234700D02*
D03*
Y228007D02*
D03*
X350500Y292754D02*
D03*
Y299447D02*
D03*
D60*
X366142Y267618D02*
D03*
Y249705D02*
D03*
D61*
X426181Y319685D02*
D03*
Y331890D02*
D03*
X347900Y306498D02*
D03*
Y318702D02*
D03*
X396500Y307295D02*
D03*
Y319500D02*
D03*
D62*
X336614Y245079D02*
D03*
X344488D02*
D03*
D63*
X335201Y259516D02*
D03*
X347799D02*
D03*
Y266484D02*
D03*
X335201D02*
D03*
D64*
X384516Y259799D02*
D03*
Y247201D02*
D03*
X391484D02*
D03*
Y259799D02*
D03*
D65*
X403150Y274606D02*
D03*
X396063D02*
D03*
X403150Y284449D02*
D03*
X396063D02*
D03*
D66*
X379900Y175911D02*
D03*
Y152289D02*
D03*
D67*
X389000Y209308D02*
D03*
X399000Y222300D02*
D03*
D68*
X351224Y186219D02*
D03*
D69*
X360200Y162400D02*
D03*
X342247D02*
D03*
D70*
X338000Y219929D02*
D03*
Y211071D02*
D03*
D71*
X379861Y197200D02*
D03*
X399939D02*
D03*
D72*
X334700Y280856D02*
D03*
Y275344D02*
D03*
D73*
X349040Y283218D02*
D03*
X341560D02*
D03*
X345300Y272982D02*
D03*
X403500Y247382D02*
D03*
X399760Y257618D02*
D03*
X407240D02*
D03*
D74*
X395669Y291339D02*
D03*
Y299213D02*
D03*
D75*
X363000Y313500D02*
D03*
X373000D02*
D03*
X383000D02*
D03*
Y278658D02*
D03*
X373000D02*
D03*
X363000D02*
D03*
D76*
X335850Y560185D02*
D03*
Y550185D02*
D03*
Y540185D02*
D03*
Y530185D02*
D03*
Y520185D02*
D03*
Y510185D02*
D03*
Y500185D02*
D03*
Y490185D02*
D03*
Y480185D02*
D03*
Y470185D02*
D03*
Y460185D02*
D03*
Y450185D02*
D03*
Y440185D02*
D03*
Y430185D02*
D03*
Y420185D02*
D03*
Y410185D02*
D03*
Y400185D02*
D03*
Y390185D02*
D03*
Y380185D02*
D03*
Y370185D02*
D03*
X405850Y560185D02*
D03*
Y550185D02*
D03*
Y540185D02*
D03*
Y530185D02*
D03*
Y520185D02*
D03*
Y510185D02*
D03*
Y500185D02*
D03*
Y490185D02*
D03*
Y480185D02*
D03*
Y470185D02*
D03*
Y460185D02*
D03*
Y450185D02*
D03*
Y440185D02*
D03*
Y430185D02*
D03*
Y420185D02*
D03*
Y410185D02*
D03*
Y400185D02*
D03*
Y390185D02*
D03*
Y380185D02*
D03*
Y370185D02*
D03*
D77*
X312899Y151667D02*
D03*
X315307Y157480D02*
D03*
X312899Y163293D02*
D03*
X307087Y165701D02*
D03*
D03*
X301274Y163293D02*
D03*
X298866Y157480D02*
D03*
X301274Y151667D02*
D03*
X307087Y149260D02*
D03*
X438884Y151667D02*
D03*
X441292Y157480D02*
D03*
X438884Y163293D02*
D03*
X433071Y165701D02*
D03*
D03*
X427258Y163293D02*
D03*
X424850Y157480D02*
D03*
X427258Y151667D02*
D03*
X433071Y149260D02*
D03*
X312899Y551274D02*
D03*
X315307Y557087D02*
D03*
X312899Y562899D02*
D03*
X307087Y565307D02*
D03*
D03*
X301274Y562899D02*
D03*
X298866Y557087D02*
D03*
X301274Y551274D02*
D03*
X307087Y548866D02*
D03*
D78*
Y157480D02*
D03*
X433071D02*
D03*
X307087Y557087D02*
D03*
D79*
X310236Y358268D02*
D03*
X303150D02*
D03*
X317323D02*
D03*
X324410D02*
D03*
X296063D02*
D03*
X331496D02*
D03*
X338583D02*
D03*
X345669D02*
D03*
X352756D02*
D03*
X359842D02*
D03*
X366929D02*
D03*
X444882D02*
D03*
X437795D02*
D03*
X430709D02*
D03*
X423622D02*
D03*
X416536D02*
D03*
X409449D02*
D03*
X402362D02*
D03*
X395276D02*
D03*
X388189D02*
D03*
X381102D02*
D03*
X374016D02*
D03*
X333270Y148426D02*
D03*
X408070D02*
D03*
D80*
X320866Y341535D02*
D03*
X391575D02*
D03*
D81*
X330866D02*
D03*
X421575D02*
D03*
X411575D02*
D03*
X401575D02*
D03*
X301575Y515039D02*
D03*
Y525039D02*
D03*
Y505039D02*
D03*
Y495039D02*
D03*
Y485039D02*
D03*
Y475039D02*
D03*
D82*
Y535039D02*
D03*
D83*
X433071Y534449D02*
D03*
D84*
Y544449D02*
D03*
M02*
