G04*
G04 #@! TF.GenerationSoftware,Altium Limited,Altium Designer,21.9.2 (33)*
G04*
G04 Layer_Color=16711935*
%FSLAX25Y25*%
%MOIN*%
G70*
G04*
G04 #@! TF.SameCoordinates,39B9B14E-A64B-4F8B-B52F-0CE4EF318544*
G04*
G04*
G04 #@! TF.FilePolarity,Negative*
G04*
G01*
G75*
%ADD54R,0.10308X0.20800*%
%ADD76O,0.08300X0.06800*%
%ADD77C,0.02200*%
%ADD78C,0.21666*%
%ADD79C,0.00800*%
%ADD80R,0.06706X0.06706*%
%ADD81C,0.06706*%
%ADD82R,0.06706X0.06706*%
%ADD83C,0.07493*%
%ADD84R,0.07493X0.07493*%
D54*
X356446Y125100D02*
D03*
X390954D02*
D03*
D76*
X335850Y560185D02*
D03*
Y550185D02*
D03*
Y540185D02*
D03*
Y530185D02*
D03*
Y520185D02*
D03*
Y510185D02*
D03*
Y500185D02*
D03*
Y490185D02*
D03*
Y480185D02*
D03*
Y470185D02*
D03*
Y460185D02*
D03*
Y450185D02*
D03*
Y440185D02*
D03*
Y430185D02*
D03*
Y420185D02*
D03*
Y410185D02*
D03*
Y400185D02*
D03*
Y390185D02*
D03*
Y380185D02*
D03*
Y370185D02*
D03*
X405850Y560185D02*
D03*
Y550185D02*
D03*
Y540185D02*
D03*
Y530185D02*
D03*
Y520185D02*
D03*
Y510185D02*
D03*
Y500185D02*
D03*
Y490185D02*
D03*
Y480185D02*
D03*
Y470185D02*
D03*
Y460185D02*
D03*
Y450185D02*
D03*
Y440185D02*
D03*
Y430185D02*
D03*
Y420185D02*
D03*
Y410185D02*
D03*
Y400185D02*
D03*
Y390185D02*
D03*
Y380185D02*
D03*
Y370185D02*
D03*
D77*
X312899Y151667D02*
D03*
X315307Y157480D02*
D03*
X312899Y163293D02*
D03*
X307087Y165701D02*
D03*
D03*
X301274Y163293D02*
D03*
X298866Y157480D02*
D03*
X301274Y151667D02*
D03*
X307087Y149260D02*
D03*
X438884Y151667D02*
D03*
X441292Y157480D02*
D03*
X438884Y163293D02*
D03*
X433071Y165701D02*
D03*
D03*
X427258Y163293D02*
D03*
X424850Y157480D02*
D03*
X427258Y151667D02*
D03*
X433071Y149260D02*
D03*
X312899Y551274D02*
D03*
X315307Y557087D02*
D03*
X312899Y562899D02*
D03*
X307087Y565307D02*
D03*
D03*
X301274Y562899D02*
D03*
X298866Y557087D02*
D03*
X301274Y551274D02*
D03*
X307087Y548866D02*
D03*
D78*
Y157480D02*
D03*
X433071D02*
D03*
X307087Y557087D02*
D03*
D79*
X310236Y358268D02*
D03*
X303150D02*
D03*
X317323D02*
D03*
X324410D02*
D03*
X296063D02*
D03*
X331496D02*
D03*
X338583D02*
D03*
X345669D02*
D03*
X352756D02*
D03*
X359842D02*
D03*
X366929D02*
D03*
X444882D02*
D03*
X437795D02*
D03*
X430709D02*
D03*
X423622D02*
D03*
X416536D02*
D03*
X409449D02*
D03*
X402362D02*
D03*
X395276D02*
D03*
X388189D02*
D03*
X381102D02*
D03*
X374016D02*
D03*
X333270Y148426D02*
D03*
X408070D02*
D03*
D80*
X320866Y341535D02*
D03*
X391575D02*
D03*
D81*
X330866D02*
D03*
X421575D02*
D03*
X411575D02*
D03*
X401575D02*
D03*
X301575Y515039D02*
D03*
Y525039D02*
D03*
Y505039D02*
D03*
Y495039D02*
D03*
Y485039D02*
D03*
Y475039D02*
D03*
D82*
Y535039D02*
D03*
D83*
X433071Y534449D02*
D03*
D84*
Y544449D02*
D03*
M02*
