M48
;Layer_Color=9474304
;FILE_FORMAT=2:5
INCH,TZ
;TYPE=PLATED
;T1 is holes inside of mounting holes
;T1F00S00C0.01200
;T2 is unneeded via
;T2F00S00C0.01575
T3F00S00C0.02800
T4F00S00C0.03543
;T5 is rpi pico holes
;T5F00S00C0.03937
T6F00S00C0.04134
T7F00S00C0.12205
;TYPE=NON_PLATED
;T8 is breakaway holes
;T8F00S00C0.03000
T9F00S00C0.07874
%
;T01
;X301274Y151667
;X307087Y149260
;X312899Y151667
;X427258
;X433071Y149260
;X438884Y151667
;X441292Y157480
;X438884Y163293
;X433071Y165701
;X427258Y163293
;X424850Y157480
;X315307
;X312899Y163293
;X307087Y165701
;X301274Y163293
;X298866Y157480
;X312899Y551274
;X315307Y557087
;X312899Y562899
;X307087Y565307
;X301274Y562899
;X298866Y557087
;X301274Y551274
;X307087Y548866
;T02
;X309449Y439764
;X422441Y439961
T03
X369291Y339764
X396189Y363672
X430118Y364173
T04
X320866Y341535
X330866
X391575
X401575
X411575
X421575
X301575Y475039
Y485039
Y495039
Y505039
Y515039
Y525039
Y535039
;T05
;X335850Y370185
;Y380185
;Y390185
;Y400185
;Y410185
;Y420185
;Y430185
;Y440185
;Y450185
;Y460185
;X405850
;Y450185
;Y440185
;Y430185
;Y420185
;Y410185
;Y400185
;Y390185
;Y380185
;Y370185
;Y470185
;Y480185
;Y490185
;Y500185
;Y510185
;Y520185
;Y530185
;Y540185
;Y550185
;Y560185
;X335850
;Y550185
;Y540185
;Y530185
;Y520185
;Y510185
;Y500185
;Y490185
;Y480185
;Y470185
T06
X433071Y534449
Y544449
T07
X433071Y157480
X307087
Y557087
;T08
;X296063Y358268
;X303150
;X310236
;X317323
;X324410
;X331496
;X338583
;X345669
;X352756
;X359842
;X366929
;X374016
;X381102
;X388189
;X395276
;X402362
;X409449
;X416536
;X423622
;X430709
;X437795
;X444882
T09
X333270Y148426
X408070
M30
